<svg width="2000" height="1185" viewBox="0 0 2000 1185" fill="none" xmlns="http://www.w3.org/2000/svg">
<circle cx="235" cy="569" r="80" fill="#D9D9D9"/>
<path d="M158.988 692H165.18C170.832 692 173.928 689.012 173.928 679.04C173.928 668.924 170.58 666.08 165.576 666.08H158.988V692ZM161.688 668.348H164.928C168.384 668.348 171.228 669.104 171.228 679.04C171.228 688.688 168.744 689.732 165 689.732H161.688V668.348ZM193.39 683.072V681.596C193.39 679.508 192.382 672.344 185.974 672.344C180.214 672.344 177.874 677.456 177.874 682.496C177.874 687.5 180.142 692.396 185.83 692.396C188.494 692.396 190.798 691.568 193.21 690.488L192.058 688.076C190.294 689.156 188.17 690.128 186.046 690.128C183.094 690.128 180.718 688.364 180.574 683.072H193.39ZM180.538 680.804C181.258 676.916 182.734 674.612 185.758 674.612C188.782 674.612 190.582 677.636 190.69 680.804H180.538ZM209.972 672.74L205.256 687.68L200.576 672.74H197.768L203.744 692.252H206.804L212.78 672.74H209.972ZM242.38 666.08H239.68V692H253.612V689.732H242.38V666.08ZM272.534 683.072V681.596C272.534 679.508 271.526 672.344 265.118 672.344C259.358 672.344 257.018 677.456 257.018 682.496C257.018 687.5 259.286 692.396 264.974 692.396C267.638 692.396 269.942 691.568 272.354 690.488L271.202 688.076C269.438 689.156 267.314 690.128 265.19 690.128C262.238 690.128 259.862 688.364 259.718 683.072H272.534ZM259.682 680.804C260.402 676.916 261.878 674.612 264.902 674.612C267.926 674.612 269.726 677.636 269.834 680.804H259.682ZM279.324 676.052C280.872 675.404 282.456 674.612 284.148 674.612C286.164 674.612 287.46 676.124 287.46 678.248V680.084C286.236 679.58 284.868 679.148 283.428 679.148C279.54 679.148 277.272 682.388 277.272 686.096C277.272 689.516 279.324 692.396 282.996 692.396C285.012 692.396 286.488 691.604 287.784 690.056L288.468 692.468L290.988 692.144C290.412 690.488 290.16 688.688 290.16 686.924V678.572C290.16 675.368 287.928 672.344 284.256 672.344C282.24 672.344 280.548 672.956 278.712 673.676L279.324 676.052ZM287.46 686.816C286.344 688.364 285.084 690.128 282.996 690.128C280.908 690.128 279.972 688.04 279.972 686.24C279.972 683.792 281.052 681.416 283.788 681.416C285.084 681.416 286.308 681.848 287.46 682.352V686.816ZM311.818 692.072C311.062 689.876 310.846 687.5 310.846 685.124V665.288H308.146V673.46C306.814 672.74 305.698 672.344 304.078 672.344C300.946 672.344 296.266 674.9 296.266 682.244C296.266 689.804 300.586 692.396 303.97 692.396C306.202 692.396 307.066 691.676 308.686 690.236L309.262 692.396L311.818 692.072ZM308.146 686.816C307.426 688.58 306.13 690.128 304.042 690.128C302.242 690.128 298.966 688.616 298.966 682.352C298.966 677.024 301.63 674.612 304.51 674.612C305.878 674.612 307.102 675.332 308.146 676.196V686.816Z" fill="black"/>
<circle cx="1524" cy="177" r="80" fill="#D9D9D9"/>
<path d="M1389.42 300H1392.12V289.812H1394.39C1399.47 289.812 1403.07 287.472 1403.07 282C1403.07 276.888 1400.33 274.08 1395.65 274.08H1389.42V300ZM1392.12 287.544V276.348H1395.29C1398.49 276.348 1400.37 277.968 1400.37 282.036C1400.37 285.672 1398.24 287.544 1395.11 287.544H1392.12ZM1409.1 300H1411.8V289.272C1413.1 289.236 1414.39 289.236 1415.69 289.2L1421.99 300H1425.26L1418.28 288.588C1421.88 286.536 1422.89 284.088 1422.89 281.424C1422.89 279.912 1422.31 274.08 1415.83 274.08H1409.1V300ZM1411.8 286.968V276.348H1414.46C1418.75 276.348 1420.19 277.824 1420.19 281.28C1420.19 285.096 1418.03 286.968 1414.36 286.968H1411.8ZM1462.14 279.696C1461.92 276.096 1459.22 273.576 1455.62 273.576C1448.31 273.576 1447.12 281.496 1447.12 287.184C1447.12 292.692 1448.17 300.504 1455.3 300.504C1459.62 300.504 1462.17 297.876 1462.46 293.664H1459.76C1459.72 296.22 1458.1 298.236 1455.4 298.236C1450.22 298.236 1449.82 291.036 1449.82 287.256C1449.82 283.26 1450.18 275.844 1455.66 275.844C1457.85 275.844 1459.4 277.536 1459.44 279.696H1462.14ZM1474.54 300.396C1478.25 300.396 1482.21 297.84 1482.21 290.388C1482.21 287.256 1481.35 280.344 1474.54 280.344C1470.87 280.344 1466.91 282.936 1466.91 290.388C1466.91 298.164 1471.19 300.396 1474.54 300.396ZM1474.54 298.128C1470.33 298.128 1469.61 293.7 1469.61 290.388C1469.61 287.076 1470.33 282.612 1474.54 282.612C1478.75 282.612 1479.51 287.076 1479.51 290.388C1479.51 293.7 1478.75 298.128 1474.54 298.128ZM1494.33 300.396C1498.04 300.396 1502 297.84 1502 290.388C1502 287.256 1501.13 280.344 1494.33 280.344C1490.66 280.344 1486.7 282.936 1486.7 290.388C1486.7 298.164 1490.98 300.396 1494.33 300.396ZM1494.33 298.128C1490.12 298.128 1489.4 293.7 1489.4 290.388C1489.4 287.076 1490.12 282.612 1494.33 282.612C1498.54 282.612 1499.3 287.076 1499.3 290.388C1499.3 293.7 1498.54 298.128 1494.33 298.128ZM1511.67 291.972C1511.67 285.636 1515.3 282.612 1517.28 282.612C1519.33 282.612 1519.12 285.348 1519.19 286.788H1521.89C1521.89 283.872 1521.03 280.344 1517.43 280.344C1514.55 280.344 1512.93 282.144 1511.45 284.412L1510.84 280.74H1508.21C1508.71 283.152 1508.97 285.744 1508.97 288.948V300H1511.67V291.972ZM1541.46 300.072C1540.7 297.876 1540.49 295.5 1540.49 293.124V273.288H1537.79V281.46C1536.46 280.74 1535.34 280.344 1533.72 280.344C1530.59 280.344 1525.91 282.9 1525.91 290.244C1525.91 297.804 1530.23 300.396 1533.61 300.396C1535.84 300.396 1536.71 299.676 1538.33 298.236L1538.9 300.396L1541.46 300.072ZM1537.79 294.816C1537.07 296.58 1535.77 298.128 1533.68 298.128C1531.88 298.128 1528.61 296.616 1528.61 290.352C1528.61 285.024 1531.27 282.612 1534.15 282.612C1535.52 282.612 1536.74 283.332 1537.79 284.196V294.816ZM1552.82 300H1555.52V280.74H1547.35V283.008H1552.82V300ZM1554.08 273.576C1552.82 273.576 1551.81 274.548 1551.81 275.844C1551.81 277.14 1552.82 278.112 1554.08 278.112C1555.34 278.112 1556.35 277.14 1556.35 275.844C1556.35 274.548 1555.34 273.576 1554.08 273.576ZM1569.37 291.972C1569.37 285.204 1572.57 282.612 1575.13 282.612C1577.5 282.612 1577.5 285.384 1577.5 287.22V300H1580.2V286.428C1580.2 283.152 1578.62 280.344 1575.56 280.344C1572.86 280.344 1570.38 282 1569.01 284.268L1568.4 280.74H1565.8C1566.52 283.8 1566.67 287.076 1566.67 290.316V300H1569.37V291.972ZM1588.11 284.052C1589.66 283.404 1591.24 282.612 1592.93 282.612C1594.95 282.612 1596.25 284.124 1596.25 286.248V288.084C1595.02 287.58 1593.65 287.148 1592.21 287.148C1588.33 287.148 1586.06 290.388 1586.06 294.096C1586.06 297.516 1588.11 300.396 1591.78 300.396C1593.8 300.396 1595.27 299.604 1596.57 298.056L1597.25 300.468L1599.77 300.144C1599.2 298.488 1598.95 296.688 1598.95 294.924V286.572C1598.95 283.368 1596.71 280.344 1593.04 280.344C1591.03 280.344 1589.33 280.956 1587.5 281.676L1588.11 284.052ZM1596.25 294.816C1595.13 296.364 1593.87 298.128 1591.78 298.128C1589.69 298.128 1588.76 296.04 1588.76 294.24C1588.76 291.792 1589.84 289.416 1592.57 289.416C1593.87 289.416 1595.09 289.848 1596.25 290.352V294.816ZM1618.88 280.74H1612V274.836H1609.3V280.74H1605.16V283.008H1609.3V293.124C1609.3 298.884 1611.28 300.396 1614.41 300.396C1617.65 300.396 1619.85 298.164 1621.14 295.392L1618.55 294.744C1617.8 296.436 1616.54 298.128 1614.48 298.128C1612.04 298.128 1612 295.86 1612 293.988V283.008H1618.88V280.74ZM1632.83 300.396C1636.54 300.396 1640.5 297.84 1640.5 290.388C1640.5 287.256 1639.63 280.344 1632.83 280.344C1629.16 280.344 1625.2 282.936 1625.2 290.388C1625.2 298.164 1629.48 300.396 1632.83 300.396ZM1632.83 298.128C1628.62 298.128 1627.9 293.7 1627.9 290.388C1627.9 287.076 1628.62 282.612 1632.83 282.612C1637.04 282.612 1637.8 287.076 1637.8 290.388C1637.8 293.7 1637.04 298.128 1632.83 298.128ZM1650.17 291.972C1650.17 285.636 1653.8 282.612 1655.78 282.612C1657.84 282.612 1657.62 285.348 1657.69 286.788H1660.39C1660.39 283.872 1659.53 280.344 1655.93 280.344C1653.05 280.344 1651.43 282.144 1649.95 284.412L1649.34 280.74H1646.71C1647.22 283.152 1647.47 285.744 1647.47 288.948V300H1650.17V291.972Z" fill="black"/>
<circle cx="736" cy="569" r="80" fill="#2D19FF"/>
<path d="M552.066 692H558.258C563.91 692 567.006 689.012 567.006 679.04C567.006 668.924 563.658 666.08 558.654 666.08H552.066V692ZM554.766 668.348H558.006C561.462 668.348 564.306 669.104 564.306 679.04C564.306 688.688 561.822 689.732 558.078 689.732H554.766V668.348ZM586.468 683.072V681.596C586.468 679.508 585.46 672.344 579.052 672.344C573.292 672.344 570.952 677.456 570.952 682.496C570.952 687.5 573.22 692.396 578.908 692.396C581.572 692.396 583.876 691.568 586.288 690.488L585.136 688.076C583.372 689.156 581.248 690.128 579.124 690.128C576.172 690.128 573.796 688.364 573.652 683.072H586.468ZM573.616 680.804C574.336 676.916 575.812 674.612 578.836 674.612C581.86 674.612 583.66 677.636 583.768 680.804H573.616ZM604.309 674.576C602.401 673.208 600.493 672.344 598.081 672.344C594.733 672.344 592.141 674.612 592.141 677.42C592.141 680.876 595.309 682.172 598.045 683.216C600.025 683.972 602.041 684.656 602.041 687.176C602.041 689.12 600.493 690.128 598.693 690.128C596.425 690.128 593.941 688.508 592.429 686.888L590.953 689.048C593.077 690.956 595.957 692.396 598.873 692.396C601.861 692.396 604.741 690.236 604.741 687.068C604.741 683.252 601.573 681.992 598.549 680.876C597.073 680.336 594.841 679.4 594.841 677.528C594.841 675.8 596.353 674.612 597.973 674.612C599.917 674.612 601.609 675.692 603.121 676.772L604.309 674.576ZM617.327 692H620.027V672.74H611.855V675.008H617.327V692ZM618.587 665.576C617.327 665.576 616.319 666.548 616.319 667.844C616.319 669.14 617.327 670.112 618.587 670.112C619.847 670.112 620.855 669.14 620.855 667.844C620.855 666.548 619.847 665.576 618.587 665.576ZM642.981 672.344L642.477 674.036C641.001 672.956 639.597 672.344 637.761 672.344C632.433 672.344 630.417 677.132 630.417 681.704C630.417 685.88 632.685 690.38 637.401 690.38C639.309 690.38 640.533 689.732 642.009 688.76V690.272C642.009 693.008 640.713 695.6 637.869 695.6C636.069 695.6 634.413 694.664 633.333 693.26L631.425 694.916C632.937 696.572 635.277 697.868 637.545 697.868C640.317 697.868 644.709 696.14 644.709 690.128V679.544C644.709 677.096 644.889 674.684 645.537 672.344H642.981ZM642.009 685.592C641.181 686.996 639.201 688.112 637.545 688.112C634.917 688.112 633.117 685.124 633.117 681.38C633.117 678.428 634.233 674.612 637.797 674.612C639.453 674.612 641.145 675.692 642.009 676.988V685.592ZM653.659 683.972C653.659 677.204 656.863 674.612 659.419 674.612C661.795 674.612 661.795 677.384 661.795 679.22V692H664.495V678.428C664.495 675.152 662.911 672.344 659.851 672.344C657.151 672.344 654.667 674 653.299 676.268L652.687 672.74H650.095C650.815 675.8 650.959 679.076 650.959 682.316V692H653.659V683.972ZM706.011 666.08H688.695V668.348H695.931V692H698.631V668.348H706.011V666.08ZM724.969 683.072V681.596C724.969 679.508 723.961 672.344 717.553 672.344C711.793 672.344 709.453 677.456 709.453 682.496C709.453 687.5 711.721 692.396 717.409 692.396C720.073 692.396 722.377 691.568 724.789 690.488L723.637 688.076C721.873 689.156 719.749 690.128 717.625 690.128C714.673 690.128 712.297 688.364 712.153 683.072H724.969ZM712.117 680.804C712.837 676.916 714.313 674.612 717.337 674.612C720.361 674.612 722.161 677.636 722.269 680.804H712.117ZM743.027 686.96C741.731 688.508 740.075 690.128 737.951 690.128C735.467 690.128 732.371 688.328 732.371 682.316C732.371 676.628 735.143 674.612 737.879 674.612C740.255 674.612 741.659 676.232 742.631 678.176L744.971 676.628C743.279 674.072 741.047 672.344 737.879 672.344C734.027 672.344 729.671 674.864 729.671 682.568C729.671 690.2 734.423 692.396 737.987 692.396C740.975 692.396 742.919 690.956 744.863 688.868L743.027 686.96ZM750.141 692H752.841V684.836C752.841 682.424 752.769 680.264 753.813 678.104C754.641 676.412 756.441 674.612 758.457 674.612C760.905 674.612 760.905 678.968 760.905 680.732V692H763.605V680.948C763.605 673.064 760.941 672.344 758.637 672.344C756.261 672.344 754.209 673.676 752.841 675.512V665.288H750.141V692ZM772.375 683.972C772.375 677.204 775.579 674.612 778.135 674.612C780.511 674.612 780.511 677.384 780.511 679.22V692H783.211V678.428C783.211 675.152 781.627 672.344 778.567 672.344C775.867 672.344 773.383 674 772.015 676.268L771.403 672.74H768.811C769.531 675.8 769.675 679.076 769.675 682.316V692H772.375V683.972ZM796.265 692.396C799.973 692.396 803.933 689.84 803.933 682.388C803.933 679.256 803.069 672.344 796.265 672.344C792.593 672.344 788.633 674.936 788.633 682.388C788.633 690.164 792.917 692.396 796.265 692.396ZM796.265 690.128C792.053 690.128 791.333 685.7 791.333 682.388C791.333 679.076 792.053 674.612 796.265 674.612C800.477 674.612 801.233 679.076 801.233 682.388C801.233 685.7 800.477 690.128 796.265 690.128ZM814.899 692H817.599V665.288H809.427V667.556H814.899V692ZM835.837 692.396C839.545 692.396 843.505 689.84 843.505 682.388C843.505 679.256 842.641 672.344 835.837 672.344C832.165 672.344 828.205 674.936 828.205 682.388C828.205 690.164 832.489 692.396 835.837 692.396ZM835.837 690.128C831.625 690.128 830.905 685.7 830.905 682.388C830.905 679.076 831.625 674.612 835.837 674.612C840.049 674.612 840.805 679.076 840.805 682.388C840.805 685.7 840.049 690.128 835.837 690.128ZM860.627 672.344L860.123 674.036C858.647 672.956 857.243 672.344 855.407 672.344C850.079 672.344 848.063 677.132 848.063 681.704C848.063 685.88 850.331 690.38 855.047 690.38C856.955 690.38 858.179 689.732 859.655 688.76V690.272C859.655 693.008 858.359 695.6 855.515 695.6C853.715 695.6 852.059 694.664 850.979 693.26L849.071 694.916C850.583 696.572 852.923 697.868 855.191 697.868C857.963 697.868 862.355 696.14 862.355 690.128V679.544C862.355 677.096 862.535 674.684 863.183 672.344H860.627ZM859.655 685.592C858.827 686.996 856.847 688.112 855.191 688.112C852.563 688.112 850.763 685.124 850.763 681.38C850.763 678.428 851.879 674.612 855.443 674.612C857.099 674.612 858.791 675.692 859.655 676.988V685.592ZM874.545 692H877.245V672.74H869.073V675.008H874.545V692ZM875.805 665.576C874.545 665.576 873.537 666.548 873.537 667.844C873.537 669.14 874.545 670.112 875.805 670.112C877.065 670.112 878.073 669.14 878.073 667.844C878.073 666.548 877.065 665.576 875.805 665.576ZM901.099 674.576C899.191 673.208 897.283 672.344 894.871 672.344C891.523 672.344 888.931 674.612 888.931 677.42C888.931 680.876 892.099 682.172 894.835 683.216C896.815 683.972 898.831 684.656 898.831 687.176C898.831 689.12 897.283 690.128 895.483 690.128C893.215 690.128 890.731 688.508 889.219 686.888L887.743 689.048C889.867 690.956 892.747 692.396 895.663 692.396C898.651 692.396 901.531 690.236 901.531 687.068C901.531 683.252 898.363 681.992 895.339 680.876C893.863 680.336 891.631 679.4 891.631 677.528C891.631 675.8 893.143 674.612 894.763 674.612C896.707 674.612 898.399 675.692 899.911 676.772L901.099 674.576ZM920.812 672.74H913.936V666.836H911.236V672.74H907.096V675.008H911.236V685.124C911.236 690.884 913.216 692.396 916.348 692.396C919.588 692.396 921.784 690.164 923.08 687.392L920.488 686.744C919.732 688.436 918.472 690.128 916.42 690.128C913.972 690.128 913.936 687.86 913.936 685.988V675.008H920.812V672.74ZM710.324 729.044C706.076 725.984 704.528 721.088 704.528 716.048C704.528 711.008 706.076 706.112 710.324 703.088L709.028 701.288C704.096 704.492 701.828 710.36 701.828 716.048C701.828 721.736 704.096 727.676 709.028 730.808L710.324 729.044ZM726.114 715.004L720.678 702.08H718.05V728H720.75V708.344L720.822 708.272L726.114 720.98L731.442 708.272H731.514V728H734.214V702.08H731.55L726.114 715.004ZM753.748 719.072V717.596C753.748 715.508 752.74 708.344 746.332 708.344C740.572 708.344 738.232 713.456 738.232 718.496C738.232 723.5 740.5 728.396 746.188 728.396C748.852 728.396 751.156 727.568 753.568 726.488L752.416 724.076C750.652 725.156 748.528 726.128 746.404 726.128C743.452 726.128 741.076 724.364 740.932 719.072H753.748ZM740.896 716.804C741.616 712.916 743.092 710.612 746.116 710.612C749.14 710.612 750.94 713.636 751.048 716.804H740.896ZM761.69 703.088C765.938 706.112 767.486 711.044 767.486 716.048C767.486 721.088 765.938 726.02 761.69 729.044L762.986 730.808C767.918 727.64 770.186 721.736 770.186 716.048C770.186 710.36 767.918 704.492 762.986 701.288L761.69 703.088Z" fill="black"/>
<circle cx="1168" cy="569" r="80" fill="#D9D9D9"/>
<path d="M1013.64 692H1016.34V681.812H1018.6C1023.68 681.812 1027.28 679.472 1027.28 674C1027.28 668.888 1024.54 666.08 1019.86 666.08H1013.64V692ZM1016.34 679.544V668.348H1019.5C1022.71 668.348 1024.58 669.968 1024.58 674.036C1024.58 677.672 1022.46 679.544 1019.32 679.544H1016.34ZM1036.95 683.972C1036.95 677.636 1040.59 674.612 1042.57 674.612C1044.62 674.612 1044.4 677.348 1044.47 678.788H1047.17C1047.17 675.872 1046.31 672.344 1042.71 672.344C1039.83 672.344 1038.21 674.144 1036.73 676.412L1036.12 672.74H1033.49C1034 675.152 1034.25 677.744 1034.25 680.948V692H1036.95V683.972ZM1059.18 692.396C1062.89 692.396 1066.85 689.84 1066.85 682.388C1066.85 679.256 1065.99 672.344 1059.18 672.344C1055.51 672.344 1051.55 674.936 1051.55 682.388C1051.55 690.164 1055.84 692.396 1059.18 692.396ZM1059.18 690.128C1054.97 690.128 1054.25 685.7 1054.25 682.388C1054.25 679.076 1054.97 674.612 1059.18 674.612C1063.4 674.612 1064.15 679.076 1064.15 682.388C1064.15 685.7 1063.4 690.128 1059.18 690.128ZM1070.8 690.128C1070.8 694.808 1072.78 697.868 1076.92 697.868C1079.62 697.868 1083.04 695.888 1083.04 691.604V672.74H1074.76V675.008H1080.34V691.748C1080.34 692.864 1079.37 695.6 1076.88 695.6C1074.22 695.6 1073.5 693.692 1073.5 690.128H1070.8ZM1081.49 665.576C1080.23 665.576 1079.19 666.548 1079.19 667.844C1079.19 669.14 1080.19 670.112 1081.49 670.112C1082.75 670.112 1083.72 669.14 1083.72 667.844C1083.72 666.548 1082.75 665.576 1081.49 665.576ZM1106.6 683.072V681.596C1106.6 679.508 1105.6 672.344 1099.19 672.344C1093.43 672.344 1091.09 677.456 1091.09 682.496C1091.09 687.5 1093.36 692.396 1099.04 692.396C1101.71 692.396 1104.01 691.568 1106.42 690.488L1105.27 688.076C1103.51 689.156 1101.38 690.128 1099.26 690.128C1096.31 690.128 1093.93 688.364 1093.79 683.072H1106.6ZM1093.75 680.804C1094.47 676.916 1095.95 674.612 1098.97 674.612C1102 674.612 1103.8 677.636 1103.9 680.804H1093.75ZM1124.66 686.96C1123.37 688.508 1121.71 690.128 1119.59 690.128C1117.1 690.128 1114.01 688.328 1114.01 682.316C1114.01 676.628 1116.78 674.612 1119.51 674.612C1121.89 674.612 1123.29 676.232 1124.27 678.176L1126.61 676.628C1124.91 674.072 1122.68 672.344 1119.51 672.344C1115.66 672.344 1111.31 674.864 1111.31 682.568C1111.31 690.2 1116.06 692.396 1119.62 692.396C1122.61 692.396 1124.55 690.956 1126.5 688.868L1124.66 686.96ZM1144.16 672.74H1137.28V666.836H1134.58V672.74H1130.44V675.008H1134.58V685.124C1134.58 690.884 1136.56 692.396 1139.7 692.396C1142.94 692.396 1145.13 690.164 1146.43 687.392L1143.84 686.744C1143.08 688.436 1141.82 690.128 1139.77 690.128C1137.32 690.128 1137.28 687.86 1137.28 685.988V675.008H1144.16V672.74ZM1171.13 692H1177.32C1182.98 692 1186.07 689.012 1186.07 679.04C1186.07 668.924 1182.72 666.08 1177.72 666.08H1171.13V692ZM1173.83 668.348H1177.07C1180.53 668.348 1183.37 669.104 1183.37 679.04C1183.37 688.688 1180.89 689.732 1177.14 689.732H1173.83V668.348ZM1196.82 692H1199.52V672.74H1191.35V675.008H1196.82V692ZM1198.08 665.576C1196.82 665.576 1195.81 666.548 1195.81 667.844C1195.81 669.14 1196.82 670.112 1198.08 670.112C1199.34 670.112 1200.35 669.14 1200.35 667.844C1200.35 666.548 1199.34 665.576 1198.08 665.576ZM1215.02 683.972C1215.02 677.636 1218.66 674.612 1220.64 674.612C1222.69 674.612 1222.48 677.348 1222.55 678.788H1225.25C1225.25 675.872 1224.38 672.344 1220.78 672.344C1217.9 672.344 1216.28 674.144 1214.81 676.412L1214.2 672.74H1211.57C1212.07 675.152 1212.32 677.744 1212.32 680.948V692H1215.02V683.972ZM1245.11 683.072V681.596C1245.11 679.508 1244.1 672.344 1237.69 672.344C1231.93 672.344 1229.59 677.456 1229.59 682.496C1229.59 687.5 1231.86 692.396 1237.55 692.396C1240.21 692.396 1242.51 691.568 1244.93 690.488L1243.77 688.076C1242.01 689.156 1239.89 690.128 1237.76 690.128C1234.81 690.128 1232.43 688.364 1232.29 683.072H1245.11ZM1232.25 680.804C1232.97 676.916 1234.45 674.612 1237.47 674.612C1240.5 674.612 1242.3 677.636 1242.41 680.804H1232.25ZM1263.16 686.96C1261.87 688.508 1260.21 690.128 1258.09 690.128C1255.6 690.128 1252.51 688.328 1252.51 682.316C1252.51 676.628 1255.28 674.612 1258.02 674.612C1260.39 674.612 1261.8 676.232 1262.77 678.176L1265.11 676.628C1263.42 674.072 1261.18 672.344 1258.02 672.344C1254.16 672.344 1249.81 674.864 1249.81 682.568C1249.81 690.2 1254.56 692.396 1258.12 692.396C1261.11 692.396 1263.06 690.956 1265 688.868L1263.16 686.96ZM1282.66 672.74H1275.79V666.836H1273.09V672.74H1268.95V675.008H1273.09V685.124C1273.09 690.884 1275.07 692.396 1278.2 692.396C1281.44 692.396 1283.63 690.164 1284.93 687.392L1282.34 686.744C1281.58 688.436 1280.32 690.128 1278.27 690.128C1275.82 690.128 1275.79 687.86 1275.79 685.988V675.008H1282.66V672.74ZM1296.62 692.396C1300.32 692.396 1304.28 689.84 1304.28 682.388C1304.28 679.256 1303.42 672.344 1296.62 672.344C1292.94 672.344 1288.98 674.936 1288.98 682.388C1288.98 690.164 1293.27 692.396 1296.62 692.396ZM1296.62 690.128C1292.4 690.128 1291.68 685.7 1291.68 682.388C1291.68 679.076 1292.4 674.612 1296.62 674.612C1300.83 674.612 1301.58 679.076 1301.58 682.388C1301.58 685.7 1300.83 690.128 1296.62 690.128ZM1313.95 683.972C1313.95 677.636 1317.59 674.612 1319.57 674.612C1321.62 674.612 1321.41 677.348 1321.48 678.788H1324.18C1324.18 675.872 1323.31 672.344 1319.71 672.344C1316.83 672.344 1315.21 674.144 1313.74 676.412L1313.13 672.74H1310.5C1311 675.152 1311.25 677.744 1311.25 680.948V692H1313.95V683.972Z" fill="black"/>
<circle cx="1600" cy="569" r="80" fill="#D9D9D9"/>
<path d="M1442.62 679.004L1437.18 666.08H1434.56V692H1437.26V672.344L1437.33 672.272L1442.62 684.98L1447.95 672.272H1448.02V692H1450.72V666.08H1448.06L1442.62 679.004ZM1457.26 676.052C1458.81 675.404 1460.39 674.612 1462.08 674.612C1464.1 674.612 1465.39 676.124 1465.39 678.248V680.084C1464.17 679.58 1462.8 679.148 1461.36 679.148C1457.47 679.148 1455.21 682.388 1455.21 686.096C1455.21 689.516 1457.26 692.396 1460.93 692.396C1462.95 692.396 1464.42 691.604 1465.72 690.056L1466.4 692.468L1468.92 692.144C1468.35 690.488 1468.09 688.688 1468.09 686.924V678.572C1468.09 675.368 1465.86 672.344 1462.19 672.344C1460.17 672.344 1458.48 672.956 1456.65 673.676L1457.26 676.052ZM1465.39 686.816C1464.28 688.364 1463.02 690.128 1460.93 690.128C1458.84 690.128 1457.91 688.04 1457.91 686.24C1457.91 683.792 1458.99 681.416 1461.72 681.416C1463.02 681.416 1464.24 681.848 1465.39 682.352V686.816ZM1479.74 683.972C1479.74 677.636 1483.38 674.612 1485.36 674.612C1487.41 674.612 1487.2 677.348 1487.27 678.788H1489.97C1489.97 675.872 1489.1 672.344 1485.5 672.344C1482.62 672.344 1481 674.144 1479.53 676.412L1478.92 672.74H1476.29C1476.79 675.152 1477.04 677.744 1477.04 680.948V692H1479.74V683.972ZM1506.15 672.74C1504.1 675.836 1501.47 678.536 1498.92 681.164V665.288H1496.22V692H1498.92V684.368L1500.14 683.144L1507.7 692H1511.27L1501.8 681.56C1504.64 678.68 1505.76 677.168 1509.57 672.74H1506.15ZM1529.61 683.072V681.596C1529.61 679.508 1528.6 672.344 1522.2 672.344C1516.44 672.344 1514.1 677.456 1514.1 682.496C1514.1 687.5 1516.36 692.396 1522.05 692.396C1524.72 692.396 1527.02 691.568 1529.43 690.488L1528.28 688.076C1526.52 689.156 1524.39 690.128 1522.27 690.128C1519.32 690.128 1516.94 688.364 1516.8 683.072H1529.61ZM1516.76 680.804C1517.48 676.916 1518.96 674.612 1521.98 674.612C1525 674.612 1526.8 677.636 1526.91 680.804H1516.76ZM1547.38 672.74H1540.51V666.836H1537.81V672.74H1533.67V675.008H1537.81V685.124C1537.81 690.884 1539.79 692.396 1542.92 692.396C1546.16 692.396 1548.35 690.164 1549.65 687.392L1547.06 686.744C1546.3 688.436 1545.04 690.128 1542.99 690.128C1540.54 690.128 1540.51 687.86 1540.51 685.988V675.008H1547.38V672.74ZM1560.47 692H1563.17V672.74H1555V675.008H1560.47V692ZM1561.73 665.576C1560.47 665.576 1559.46 666.548 1559.46 667.844C1559.46 669.14 1560.47 670.112 1561.73 670.112C1562.99 670.112 1564 669.14 1564 667.844C1564 666.548 1562.99 665.576 1561.73 665.576ZM1577.02 683.972C1577.02 677.204 1580.22 674.612 1582.78 674.612C1585.15 674.612 1585.15 677.384 1585.15 679.22V692H1587.85V678.428C1587.85 675.152 1586.27 672.344 1583.21 672.344C1580.51 672.344 1578.03 674 1576.66 676.268L1576.05 672.74H1573.45C1574.17 675.8 1574.32 679.076 1574.32 682.316V692H1577.02V683.972ZM1605.91 672.344L1605.41 674.036C1603.93 672.956 1602.53 672.344 1600.69 672.344C1595.36 672.344 1593.35 677.132 1593.35 681.704C1593.35 685.88 1595.62 690.38 1600.33 690.38C1602.24 690.38 1603.46 689.732 1604.94 688.76V690.272C1604.94 693.008 1603.64 695.6 1600.8 695.6C1599 695.6 1597.34 694.664 1596.26 693.26L1594.36 694.916C1595.87 696.572 1598.21 697.868 1600.48 697.868C1603.25 697.868 1607.64 696.14 1607.64 690.128V679.544C1607.64 677.096 1607.82 674.684 1608.47 672.344H1605.91ZM1604.94 685.592C1604.11 686.996 1602.13 688.112 1600.48 688.112C1597.85 688.112 1596.05 685.124 1596.05 681.38C1596.05 678.428 1597.16 674.612 1600.73 674.612C1602.38 674.612 1604.08 675.692 1604.94 676.988V685.592ZM1650.38 677.852H1641.74V669.32H1639.22V677.852H1630.58V680.228H1639.22V688.76H1641.74V680.228H1650.38V677.852ZM1687.72 666.08H1674.25V692H1687.97V689.732H1676.95V679.832H1684.69V677.564H1676.95V668.348H1687.72V666.08ZM1704.48 672.74L1699.76 687.68L1695.08 672.74H1692.28L1698.25 692.252H1701.31L1707.29 672.74H1704.48ZM1727.47 683.072V681.596C1727.47 679.508 1726.46 672.344 1720.05 672.344C1714.29 672.344 1711.95 677.456 1711.95 682.496C1711.95 687.5 1714.22 692.396 1719.91 692.396C1722.57 692.396 1724.88 691.568 1727.29 690.488L1726.14 688.076C1724.37 689.156 1722.25 690.128 1720.13 690.128C1717.17 690.128 1714.8 688.364 1714.65 683.072H1727.47ZM1714.62 680.804C1715.34 676.916 1716.81 674.612 1719.84 674.612C1722.86 674.612 1724.66 677.636 1724.77 680.804H1714.62ZM1735.3 683.972C1735.3 677.204 1738.51 674.612 1741.06 674.612C1743.44 674.612 1743.44 677.384 1743.44 679.22V692H1746.14V678.428C1746.14 675.152 1744.56 672.344 1741.5 672.344C1738.8 672.344 1736.31 674 1734.94 676.268L1734.33 672.74H1731.74C1732.46 675.8 1732.6 679.076 1732.6 682.316V692H1735.3V683.972ZM1765.03 672.74H1758.15V666.836H1755.45V672.74H1751.31V675.008H1755.45V685.124C1755.45 690.884 1757.43 692.396 1760.56 692.396C1763.8 692.396 1766 690.164 1767.29 687.392L1764.7 686.744C1763.95 688.436 1762.69 690.128 1760.63 690.128C1758.19 690.128 1758.15 687.86 1758.15 685.988V675.008H1765.03V672.74ZM1540.65 715.004L1535.21 702.08H1532.59V728H1535.29V708.344L1535.36 708.272L1540.65 720.98L1545.98 708.272H1546.05V728H1548.75V702.08H1546.09L1540.65 715.004ZM1555.29 712.052C1556.84 711.404 1558.42 710.612 1560.11 710.612C1562.13 710.612 1563.42 712.124 1563.42 714.248V716.084C1562.2 715.58 1560.83 715.148 1559.39 715.148C1555.5 715.148 1553.24 718.388 1553.24 722.096C1553.24 725.516 1555.29 728.396 1558.96 728.396C1560.98 728.396 1562.45 727.604 1563.75 726.056L1564.43 728.468L1566.95 728.144C1566.38 726.488 1566.12 724.688 1566.12 722.924V714.572C1566.12 711.368 1563.89 708.344 1560.22 708.344C1558.2 708.344 1556.51 708.956 1554.68 709.676L1555.29 712.052ZM1563.42 722.816C1562.31 724.364 1561.05 726.128 1558.96 726.128C1556.87 726.128 1555.94 724.04 1555.94 722.24C1555.94 719.792 1557.02 717.416 1559.75 717.416C1561.05 717.416 1562.27 717.848 1563.42 718.352V722.816ZM1576.12 719.972C1576.12 713.204 1579.32 710.612 1581.88 710.612C1584.25 710.612 1584.25 713.384 1584.25 715.22V728H1586.95V714.428C1586.95 711.152 1585.37 708.344 1582.31 708.344C1579.61 708.344 1577.13 710 1575.76 712.268L1575.15 708.74H1572.55C1573.27 711.8 1573.42 715.076 1573.42 718.316V728H1576.12V719.972ZM1594.86 712.052C1596.41 711.404 1597.99 710.612 1599.68 710.612C1601.7 710.612 1603 712.124 1603 714.248V716.084C1601.77 715.58 1600.4 715.148 1598.96 715.148C1595.08 715.148 1592.81 718.388 1592.81 722.096C1592.81 725.516 1594.86 728.396 1598.53 728.396C1600.55 728.396 1602.02 727.604 1603.32 726.056L1604 728.468L1606.52 728.144C1605.95 726.488 1605.7 724.688 1605.7 722.924V714.572C1605.7 711.368 1603.46 708.344 1599.79 708.344C1597.78 708.344 1596.08 708.956 1594.25 709.676L1594.86 712.052ZM1603 722.816C1601.88 724.364 1600.62 726.128 1598.53 726.128C1596.44 726.128 1595.51 724.04 1595.51 722.24C1595.51 719.792 1596.59 717.416 1599.32 717.416C1600.62 717.416 1601.84 717.848 1603 718.352V722.816ZM1624.8 708.344L1624.29 710.036C1622.82 708.956 1621.41 708.344 1619.58 708.344C1614.25 708.344 1612.23 713.132 1612.23 717.704C1612.23 721.88 1614.5 726.38 1619.22 726.38C1621.12 726.38 1622.35 725.732 1623.82 724.76V726.272C1623.82 729.008 1622.53 731.6 1619.68 731.6C1617.88 731.6 1616.23 730.664 1615.15 729.26L1613.24 730.916C1614.75 732.572 1617.09 733.868 1619.36 733.868C1622.13 733.868 1626.52 732.14 1626.52 726.128V715.544C1626.52 713.096 1626.7 710.684 1627.35 708.344H1624.8ZM1623.82 721.592C1623 722.996 1621.02 724.112 1619.36 724.112C1616.73 724.112 1614.93 721.124 1614.93 717.38C1614.93 714.428 1616.05 710.612 1619.61 710.612C1621.27 710.612 1622.96 711.692 1623.82 712.988V721.592ZM1647.43 719.072V717.596C1647.43 715.508 1646.42 708.344 1640.01 708.344C1634.25 708.344 1631.91 713.456 1631.91 718.496C1631.91 723.5 1634.18 728.396 1639.87 728.396C1642.53 728.396 1644.83 727.568 1647.25 726.488L1646.09 724.076C1644.33 725.156 1642.21 726.128 1640.08 726.128C1637.13 726.128 1634.75 724.364 1634.61 719.072H1647.43ZM1634.57 716.804C1635.29 712.916 1636.77 710.612 1639.79 710.612C1642.82 710.612 1644.62 713.636 1644.73 716.804H1634.57ZM1656.92 719.972C1656.92 713.636 1660.55 710.612 1662.53 710.612C1664.58 710.612 1664.37 713.348 1664.44 714.788H1667.14C1667.14 711.872 1666.28 708.344 1662.68 708.344C1659.8 708.344 1658.18 710.144 1656.7 712.412L1656.09 708.74H1653.46C1653.96 711.152 1654.22 713.744 1654.22 716.948V728H1656.92V719.972Z" fill="black"/>
<rect width="371" height="68" transform="translate(489 402)" fill="#FFD900"/>
<path d="M523.6 424.696C523.384 421.096 520.684 418.576 517.084 418.576C509.776 418.576 508.588 426.496 508.588 432.184C508.588 437.692 509.632 445.504 516.76 445.504C521.08 445.504 523.636 442.876 523.924 438.664H521.224C521.188 441.22 519.568 443.236 516.868 443.236C511.684 443.236 511.288 436.036 511.288 432.256C511.288 428.26 511.648 420.844 517.12 420.844C519.316 420.844 520.864 422.536 520.9 424.696H523.6ZM536.005 445.396C539.713 445.396 543.673 442.84 543.673 435.388C543.673 432.256 542.809 425.344 536.005 425.344C532.333 425.344 528.373 427.936 528.373 435.388C528.373 443.164 532.657 445.396 536.005 445.396ZM536.005 443.128C531.793 443.128 531.073 438.7 531.073 435.388C531.073 432.076 531.793 427.612 536.005 427.612C540.217 427.612 540.973 432.076 540.973 435.388C540.973 438.7 540.217 443.128 536.005 443.128ZM553.343 436.972C553.343 430.636 556.979 427.612 558.959 427.612C561.011 427.612 560.795 430.348 560.867 431.788H563.567C563.567 428.872 562.703 425.344 559.103 425.344C556.223 425.344 554.603 427.144 553.127 429.412L552.515 425.74H549.887C550.391 428.152 550.643 430.744 550.643 433.948V445H553.343V436.972ZM583.425 436.072V434.596C583.425 432.508 582.417 425.344 576.009 425.344C570.249 425.344 567.909 430.456 567.909 435.496C567.909 440.5 570.177 445.396 575.865 445.396C578.529 445.396 580.833 444.568 583.245 443.488L582.093 441.076C580.329 442.156 578.205 443.128 576.081 443.128C573.129 443.128 570.753 441.364 570.609 436.072H583.425ZM570.573 433.804C571.293 429.916 572.769 427.612 575.793 427.612C578.817 427.612 580.617 430.636 580.725 433.804H570.573ZM609.173 445H611.873V434.812H614.141C619.217 434.812 622.817 432.472 622.817 427C622.817 421.888 620.081 419.08 615.401 419.08H609.173V445ZM611.873 432.544V421.348H615.041C618.245 421.348 620.117 422.968 620.117 427.036C620.117 430.672 617.993 432.544 614.861 432.544H611.873ZM632.487 436.972C632.487 430.636 636.123 427.612 638.103 427.612C640.155 427.612 639.939 430.348 640.011 431.788H642.711C642.711 428.872 641.847 425.344 638.247 425.344C635.367 425.344 633.747 427.144 632.271 429.412L631.659 425.74H629.031C629.535 428.152 629.787 430.744 629.787 433.948V445H632.487V436.972ZM654.721 445.396C658.429 445.396 662.389 442.84 662.389 435.388C662.389 432.256 661.525 425.344 654.721 425.344C651.049 425.344 647.089 427.936 647.089 435.388C647.089 443.164 651.373 445.396 654.721 445.396ZM654.721 443.128C650.509 443.128 649.789 438.7 649.789 435.388C649.789 432.076 650.509 427.612 654.721 427.612C658.933 427.612 659.689 432.076 659.689 435.388C659.689 438.7 658.933 443.128 654.721 443.128ZM666.335 443.128C666.335 447.808 668.315 450.868 672.455 450.868C675.155 450.868 678.575 448.888 678.575 444.604V425.74H670.295V428.008H675.875V444.748C675.875 445.864 674.903 448.6 672.419 448.6C669.755 448.6 669.035 446.692 669.035 443.128H666.335ZM677.027 418.576C675.767 418.576 674.723 419.548 674.723 420.844C674.723 422.14 675.731 423.112 677.027 423.112C678.287 423.112 679.259 422.14 679.259 420.844C679.259 419.548 678.287 418.576 677.027 418.576ZM702.141 436.072V434.596C702.141 432.508 701.133 425.344 694.725 425.344C688.965 425.344 686.625 430.456 686.625 435.496C686.625 440.5 688.893 445.396 694.581 445.396C697.245 445.396 699.549 444.568 701.961 443.488L700.809 441.076C699.045 442.156 696.921 443.128 694.797 443.128C691.845 443.128 689.469 441.364 689.325 436.072H702.141ZM689.289 433.804C690.009 429.916 691.485 427.612 694.509 427.612C697.533 427.612 699.333 430.636 699.441 433.804H689.289ZM720.199 439.96C718.903 441.508 717.247 443.128 715.123 443.128C712.639 443.128 709.543 441.328 709.543 435.316C709.543 429.628 712.315 427.612 715.051 427.612C717.427 427.612 718.831 429.232 719.803 431.176L722.143 429.628C720.451 427.072 718.219 425.344 715.051 425.344C711.199 425.344 706.843 427.864 706.843 435.568C706.843 443.2 711.595 445.396 715.159 445.396C718.147 445.396 720.091 443.956 722.035 441.868L720.199 439.96ZM739.697 425.74H732.821V419.836H730.121V425.74H725.981V428.008H730.121V438.124C730.121 443.884 732.101 445.396 735.233 445.396C738.473 445.396 740.669 443.164 741.965 440.392L739.373 439.744C738.617 441.436 737.357 443.128 735.305 443.128C732.857 443.128 732.821 440.86 732.821 438.988V428.008H739.697V425.74ZM782.113 419.08H764.797V421.348H772.033V445H774.733V421.348H782.113V419.08ZM801.071 436.072V434.596C801.071 432.508 800.063 425.344 793.655 425.344C787.895 425.344 785.555 430.456 785.555 435.496C785.555 440.5 787.823 445.396 793.511 445.396C796.175 445.396 798.479 444.568 800.891 443.488L799.739 441.076C797.975 442.156 795.851 443.128 793.727 443.128C790.775 443.128 788.399 441.364 788.255 436.072H801.071ZM788.219 433.804C788.939 429.916 790.415 427.612 793.439 427.612C796.463 427.612 798.263 430.636 798.371 433.804H788.219ZM807.861 429.052C809.409 428.404 810.993 427.612 812.685 427.612C814.701 427.612 815.997 429.124 815.997 431.248V433.084C814.773 432.58 813.405 432.148 811.965 432.148C808.077 432.148 805.809 435.388 805.809 439.096C805.809 442.516 807.861 445.396 811.533 445.396C813.549 445.396 815.025 444.604 816.321 443.056L817.005 445.468L819.525 445.144C818.949 443.488 818.697 441.688 818.697 439.924V431.572C818.697 428.368 816.465 425.344 812.793 425.344C810.777 425.344 809.085 425.956 807.249 426.676L807.861 429.052ZM815.997 439.816C814.881 441.364 813.621 443.128 811.533 443.128C809.445 443.128 808.509 441.04 808.509 439.24C808.509 436.792 809.589 434.416 812.325 434.416C813.621 434.416 814.845 434.848 815.997 435.352V439.816ZM824.443 445H827.143V429.952C827.647 428.764 828.943 427.612 830.239 427.612C831.463 427.612 831.751 428.8 831.751 429.808V445H834.451V429.628C835.027 428.62 836.071 427.612 837.295 427.612C838.375 427.612 839.059 428.332 839.059 429.628V445H841.759V429.628C841.759 427.036 840.103 425.344 837.511 425.344C835.927 425.344 834.919 426.1 833.803 427.108C832.759 425.776 832.291 425.344 830.527 425.344C828.907 425.344 827.899 426.064 826.747 427.072L826.351 425.344H823.651C824.083 427.36 824.443 429.088 824.443 431.716V445Z" fill="black"/>
<rect x="506" y="419" width="1324" height="348" stroke="black" stroke-width="4"/>
<circle cx="235" cy="980" r="50" fill="#D9D9D9"/>
<circle cx="165" cy="920" r="50" fill="#D9D9D9"/>
<circle cx="305" cy="920" r="50" fill="#D9D9D9"/>
<path d="M158.988 1073H165.18C170.832 1073 173.928 1070.01 173.928 1060.04C173.928 1049.92 170.58 1047.08 165.576 1047.08H158.988V1073ZM161.688 1049.35H164.928C168.384 1049.35 171.228 1050.1 171.228 1060.04C171.228 1069.69 168.744 1070.73 165 1070.73H161.688V1049.35ZM193.39 1064.07V1062.6C193.39 1060.51 192.382 1053.34 185.974 1053.34C180.214 1053.34 177.874 1058.46 177.874 1063.5C177.874 1068.5 180.142 1073.4 185.83 1073.4C188.494 1073.4 190.798 1072.57 193.21 1071.49L192.058 1069.08C190.294 1070.16 188.17 1071.13 186.046 1071.13C183.094 1071.13 180.718 1069.36 180.574 1064.07H193.39ZM180.538 1061.8C181.258 1057.92 182.734 1055.61 185.758 1055.61C188.782 1055.61 190.582 1058.64 190.69 1061.8H180.538ZM209.972 1053.74L205.256 1068.68L200.576 1053.74H197.768L203.744 1073.25H206.804L212.78 1053.74H209.972ZM253.576 1047.08H236.26V1049.35H243.496V1073H246.196V1049.35H253.576V1047.08ZM272.534 1064.07V1062.6C272.534 1060.51 271.526 1053.34 265.118 1053.34C259.358 1053.34 257.018 1058.46 257.018 1063.5C257.018 1068.5 259.286 1073.4 264.974 1073.4C267.638 1073.4 269.942 1072.57 272.354 1071.49L271.202 1069.08C269.438 1070.16 267.314 1071.13 265.19 1071.13C262.238 1071.13 259.862 1069.36 259.718 1064.07H272.534ZM259.682 1061.8C260.402 1057.92 261.878 1055.61 264.902 1055.61C267.926 1055.61 269.726 1058.64 269.834 1061.8H259.682ZM279.324 1057.05C280.872 1056.4 282.456 1055.61 284.148 1055.61C286.164 1055.61 287.46 1057.12 287.46 1059.25V1061.08C286.236 1060.58 284.868 1060.15 283.428 1060.15C279.54 1060.15 277.272 1063.39 277.272 1067.1C277.272 1070.52 279.324 1073.4 282.996 1073.4C285.012 1073.4 286.488 1072.6 287.784 1071.06L288.468 1073.47L290.988 1073.14C290.412 1071.49 290.16 1069.69 290.16 1067.92V1059.57C290.16 1056.37 287.928 1053.34 284.256 1053.34C282.24 1053.34 280.548 1053.96 278.712 1054.68L279.324 1057.05ZM287.46 1067.82C286.344 1069.36 285.084 1071.13 282.996 1071.13C280.908 1071.13 279.972 1069.04 279.972 1067.24C279.972 1064.79 281.052 1062.42 283.788 1062.42C285.084 1062.42 286.308 1062.85 287.46 1063.35V1067.82ZM295.906 1073H298.606V1057.95C299.11 1056.76 300.406 1055.61 301.702 1055.61C302.926 1055.61 303.214 1056.8 303.214 1057.81V1073H305.914V1057.63C306.49 1056.62 307.534 1055.61 308.758 1055.61C309.838 1055.61 310.522 1056.33 310.522 1057.63V1073H313.222V1057.63C313.222 1055.04 311.566 1053.34 308.974 1053.34C307.39 1053.34 306.382 1054.1 305.266 1055.11C304.222 1053.78 303.754 1053.34 301.99 1053.34C300.37 1053.34 299.362 1054.06 298.21 1055.07L297.814 1053.34H295.114C295.546 1055.36 295.906 1057.09 295.906 1059.72V1073Z" fill="black"/>
<circle cx="736" cy="979" r="50" fill="#D9D9D9"/>
<circle cx="666" cy="919" r="50" fill="#D9D9D9"/>
<circle cx="806" cy="919" r="50" fill="#D9D9D9"/>
<path d="M578.62 1059L573.184 1046.08H570.556V1072H573.256V1052.34L573.328 1052.27L578.62 1064.98L583.948 1052.27H584.02V1072H586.72V1046.08H584.056L578.62 1059ZM593.257 1056.05C594.805 1055.4 596.389 1054.61 598.081 1054.61C600.097 1054.61 601.393 1056.12 601.393 1058.25V1060.08C600.169 1059.58 598.801 1059.15 597.361 1059.15C593.473 1059.15 591.205 1062.39 591.205 1066.1C591.205 1069.52 593.257 1072.4 596.929 1072.4C598.945 1072.4 600.421 1071.6 601.717 1070.06L602.401 1072.47L604.921 1072.14C604.345 1070.49 604.093 1068.69 604.093 1066.92V1058.57C604.093 1055.37 601.861 1052.34 598.189 1052.34C596.173 1052.34 594.481 1052.96 592.645 1053.68L593.257 1056.05ZM601.393 1066.82C600.277 1068.36 599.017 1070.13 596.929 1070.13C594.841 1070.13 593.905 1068.04 593.905 1066.24C593.905 1063.79 594.985 1061.42 597.721 1061.42C599.017 1061.42 600.241 1061.85 601.393 1062.35V1066.82ZM615.743 1063.97C615.743 1057.64 619.379 1054.61 621.359 1054.61C623.411 1054.61 623.195 1057.35 623.267 1058.79H625.967C625.967 1055.87 625.103 1052.34 621.503 1052.34C618.623 1052.34 617.003 1054.14 615.527 1056.41L614.915 1052.74H612.287C612.791 1055.15 613.043 1057.74 613.043 1060.95V1072H615.743V1063.97ZM642.153 1052.74C640.101 1055.84 637.473 1058.54 634.917 1061.16V1045.29H632.217V1072H634.917V1064.37L636.141 1063.14L643.701 1072H647.265L637.797 1061.56C640.641 1058.68 641.757 1057.17 645.573 1052.74H642.153ZM665.611 1063.07V1061.6C665.611 1059.51 664.603 1052.34 658.195 1052.34C652.435 1052.34 650.095 1057.46 650.095 1062.5C650.095 1067.5 652.363 1072.4 658.051 1072.4C660.715 1072.4 663.019 1071.57 665.431 1070.49L664.279 1068.08C662.515 1069.16 660.391 1070.13 658.267 1070.13C655.315 1070.13 652.939 1068.36 652.795 1063.07H665.611ZM652.759 1060.8C653.479 1056.92 654.955 1054.61 657.979 1054.61C661.003 1054.61 662.803 1057.64 662.911 1060.8H652.759ZM683.381 1052.74H676.505V1046.84H673.805V1052.74H669.665V1055.01H673.805V1065.12C673.805 1070.88 675.785 1072.4 678.917 1072.4C682.157 1072.4 684.353 1070.16 685.649 1067.39L683.057 1066.74C682.301 1068.44 681.041 1070.13 678.989 1070.13C676.541 1070.13 676.505 1067.86 676.505 1065.99V1055.01H683.381V1052.74ZM696.471 1072H699.171V1052.74H690.999V1055.01H696.471V1072ZM697.731 1045.58C696.471 1045.58 695.463 1046.55 695.463 1047.84C695.463 1049.14 696.471 1050.11 697.731 1050.11C698.991 1050.11 699.999 1049.14 699.999 1047.84C699.999 1046.55 698.991 1045.58 697.731 1045.58ZM713.017 1063.97C713.017 1057.2 716.221 1054.61 718.777 1054.61C721.153 1054.61 721.153 1057.38 721.153 1059.22V1072H723.853V1058.43C723.853 1055.15 722.269 1052.34 719.209 1052.34C716.509 1052.34 714.025 1054 712.657 1056.27L712.045 1052.74H709.453C710.173 1055.8 710.317 1059.08 710.317 1062.32V1072H713.017V1063.97ZM741.911 1052.34L741.407 1054.04C739.931 1052.96 738.527 1052.34 736.691 1052.34C731.363 1052.34 729.347 1057.13 729.347 1061.7C729.347 1065.88 731.615 1070.38 736.331 1070.38C738.239 1070.38 739.463 1069.73 740.939 1068.76V1070.27C740.939 1073.01 739.643 1075.6 736.799 1075.6C734.999 1075.6 733.343 1074.66 732.263 1073.26L730.355 1074.92C731.867 1076.57 734.207 1077.87 736.475 1077.87C739.247 1077.87 743.639 1076.14 743.639 1070.13V1059.54C743.639 1057.1 743.819 1054.68 744.467 1052.34H741.911ZM740.939 1065.59C740.111 1067 738.131 1068.11 736.475 1068.11C733.847 1068.11 732.047 1065.12 732.047 1061.38C732.047 1058.43 733.163 1054.61 736.727 1054.61C738.383 1054.61 740.075 1055.69 740.939 1056.99V1065.59ZM786.379 1057.85H777.739V1049.32H775.219V1057.85H766.579V1060.23H775.219V1068.76H777.739V1060.23H786.379V1057.85ZM823.719 1046.08H810.255V1072H823.971V1069.73H812.955V1059.83H820.695V1057.56H812.955V1048.35H823.719V1046.08ZM840.481 1052.74L835.765 1067.68L831.085 1052.74H828.277L834.253 1072.25H837.313L843.289 1052.74H840.481ZM863.471 1063.07V1061.6C863.471 1059.51 862.463 1052.34 856.055 1052.34C850.295 1052.34 847.955 1057.46 847.955 1062.5C847.955 1067.5 850.223 1072.4 855.911 1072.4C858.575 1072.4 860.879 1071.57 863.291 1070.49L862.139 1068.08C860.375 1069.16 858.251 1070.13 856.127 1070.13C853.175 1070.13 850.799 1068.36 850.655 1063.07H863.471ZM850.619 1060.8C851.339 1056.92 852.815 1054.61 855.839 1054.61C858.863 1054.61 860.663 1057.64 860.771 1060.8H850.619ZM871.305 1063.97C871.305 1057.2 874.509 1054.61 877.065 1054.61C879.441 1054.61 879.441 1057.38 879.441 1059.22V1072H882.141V1058.43C882.141 1055.15 880.557 1052.34 877.497 1052.34C874.797 1052.34 872.313 1054 870.945 1056.27L870.333 1052.74H867.741C868.461 1055.8 868.605 1059.08 868.605 1062.32V1072H871.305V1063.97ZM901.027 1052.74H894.151V1046.84H891.451V1052.74H887.311V1055.01H891.451V1065.12C891.451 1070.88 893.431 1072.4 896.563 1072.4C899.803 1072.4 901.999 1070.16 903.295 1067.39L900.703 1066.74C899.947 1068.44 898.687 1070.13 896.635 1070.13C894.187 1070.13 894.151 1067.86 894.151 1065.99V1055.01H901.027V1052.74ZM634.564 1087.7C634.348 1084.1 631.648 1081.58 628.048 1081.58C620.74 1081.58 619.552 1089.5 619.552 1095.18C619.552 1100.69 620.596 1108.5 627.724 1108.5C632.044 1108.5 634.6 1105.88 634.888 1101.66H632.188C632.152 1104.22 630.532 1106.24 627.832 1106.24C622.648 1106.24 622.252 1099.04 622.252 1095.26C622.252 1091.26 622.612 1083.84 628.084 1083.84C630.28 1083.84 631.828 1085.54 631.864 1087.7H634.564ZM646.97 1108.4C650.678 1108.4 654.638 1105.84 654.638 1098.39C654.638 1095.26 653.774 1088.34 646.97 1088.34C643.298 1088.34 639.338 1090.94 639.338 1098.39C639.338 1106.16 643.622 1108.4 646.97 1108.4ZM646.97 1106.13C642.758 1106.13 642.038 1101.7 642.038 1098.39C642.038 1095.08 642.758 1090.61 646.97 1090.61C651.182 1090.61 651.938 1095.08 651.938 1098.39C651.938 1101.7 651.182 1106.13 646.97 1106.13ZM666.756 1108.4C670.464 1108.4 674.424 1105.84 674.424 1098.39C674.424 1095.26 673.56 1088.34 666.756 1088.34C663.084 1088.34 659.124 1090.94 659.124 1098.39C659.124 1106.16 663.408 1108.4 666.756 1108.4ZM666.756 1106.13C662.544 1106.13 661.824 1101.7 661.824 1098.39C661.824 1095.08 662.544 1090.61 666.756 1090.61C670.968 1090.61 671.724 1095.08 671.724 1098.39C671.724 1101.7 670.968 1106.13 666.756 1106.13ZM684.094 1099.97C684.094 1093.64 687.73 1090.61 689.71 1090.61C691.762 1090.61 691.546 1093.35 691.618 1094.79H694.318C694.318 1091.87 693.454 1088.34 689.854 1088.34C686.974 1088.34 685.354 1090.14 683.878 1092.41L683.266 1088.74H680.638C681.142 1091.15 681.394 1093.74 681.394 1096.95V1108H684.094V1099.97ZM713.888 1108.07C713.132 1105.88 712.916 1103.5 712.916 1101.12V1081.29H710.216V1089.46C708.884 1088.74 707.768 1088.34 706.148 1088.34C703.016 1088.34 698.336 1090.9 698.336 1098.24C698.336 1105.8 702.656 1108.4 706.04 1108.4C708.272 1108.4 709.136 1107.68 710.756 1106.24L711.332 1108.4L713.888 1108.07ZM710.216 1102.82C709.496 1104.58 708.2 1106.13 706.112 1106.13C704.312 1106.13 701.036 1104.62 701.036 1098.35C701.036 1093.02 703.7 1090.61 706.58 1090.61C707.948 1090.61 709.172 1091.33 710.216 1092.2V1102.82ZM725.25 1108H727.95V1088.74H719.778V1091.01H725.25V1108ZM726.51 1081.58C725.25 1081.58 724.242 1082.55 724.242 1083.84C724.242 1085.14 725.25 1086.11 726.51 1086.11C727.77 1086.11 728.778 1085.14 728.778 1083.84C728.778 1082.55 727.77 1081.58 726.51 1081.58ZM741.796 1099.97C741.796 1093.2 745 1090.61 747.556 1090.61C749.932 1090.61 749.932 1093.38 749.932 1095.22V1108H752.632V1094.43C752.632 1091.15 751.048 1088.34 747.988 1088.34C745.288 1088.34 742.804 1090 741.436 1092.27L740.824 1088.74H738.232C738.952 1091.8 739.096 1095.08 739.096 1098.32V1108H741.796V1099.97ZM760.538 1092.05C762.086 1091.4 763.67 1090.61 765.362 1090.61C767.378 1090.61 768.674 1092.12 768.674 1094.25V1096.08C767.45 1095.58 766.082 1095.15 764.642 1095.15C760.754 1095.15 758.486 1098.39 758.486 1102.1C758.486 1105.52 760.538 1108.4 764.21 1108.4C766.226 1108.4 767.702 1107.6 768.998 1106.06L769.682 1108.47L772.202 1108.14C771.626 1106.49 771.374 1104.69 771.374 1102.92V1094.57C771.374 1091.37 769.142 1088.34 765.47 1088.34C763.454 1088.34 761.762 1088.96 759.926 1089.68L760.538 1092.05ZM768.674 1102.82C767.558 1104.36 766.298 1106.13 764.21 1106.13C762.122 1106.13 761.186 1104.04 761.186 1102.24C761.186 1099.79 762.266 1097.42 765.002 1097.42C766.298 1097.42 767.522 1097.85 768.674 1098.35V1102.82ZM791.304 1088.74H784.428V1082.84H781.728V1088.74H777.588V1091.01H781.728V1101.12C781.728 1106.88 783.708 1108.4 786.84 1108.4C790.08 1108.4 792.276 1106.16 793.572 1103.39L790.98 1102.74C790.224 1104.44 788.964 1106.13 786.912 1106.13C784.464 1106.13 784.428 1103.86 784.428 1101.99V1091.01H791.304V1088.74ZM805.258 1108.4C808.966 1108.4 812.926 1105.84 812.926 1098.39C812.926 1095.26 812.062 1088.34 805.258 1088.34C801.586 1088.34 797.626 1090.94 797.626 1098.39C797.626 1106.16 801.91 1108.4 805.258 1108.4ZM805.258 1106.13C801.046 1106.13 800.326 1101.7 800.326 1098.39C800.326 1095.08 801.046 1090.61 805.258 1090.61C809.47 1090.61 810.226 1095.08 810.226 1098.39C810.226 1101.7 809.47 1106.13 805.258 1106.13ZM822.596 1099.97C822.596 1093.64 826.232 1090.61 828.212 1090.61C830.264 1090.61 830.048 1093.35 830.12 1094.79H832.82C832.82 1091.87 831.956 1088.34 828.356 1088.34C825.476 1088.34 823.856 1090.14 822.38 1092.41L821.768 1088.74H819.14C819.644 1091.15 819.896 1093.74 819.896 1096.95V1108H822.596V1099.97ZM850.734 1090.58C848.826 1089.21 846.918 1088.34 844.506 1088.34C841.158 1088.34 838.566 1090.61 838.566 1093.42C838.566 1096.88 841.734 1098.17 844.47 1099.22C846.45 1099.97 848.466 1100.66 848.466 1103.18C848.466 1105.12 846.918 1106.13 845.118 1106.13C842.85 1106.13 840.366 1104.51 838.854 1102.89L837.378 1105.05C839.502 1106.96 842.382 1108.4 845.298 1108.4C848.286 1108.4 851.166 1106.24 851.166 1103.07C851.166 1099.25 847.998 1097.99 844.974 1096.88C843.498 1096.34 841.266 1095.4 841.266 1093.53C841.266 1091.8 842.778 1090.61 844.398 1090.61C846.342 1090.61 848.034 1091.69 849.546 1092.77L850.734 1090.58Z" fill="black"/>
<circle cx="1600" cy="980" r="50" fill="#D9D9D9"/>
<circle cx="1530" cy="920" r="50" fill="#D9D9D9"/>
<circle cx="1670" cy="920" r="50" fill="#D9D9D9"/>
<path d="M1538.14 1052.7C1537.92 1049.1 1535.22 1046.58 1531.62 1046.58C1524.31 1046.58 1523.12 1054.5 1523.12 1060.18C1523.12 1065.69 1524.17 1073.5 1531.3 1073.5C1535.62 1073.5 1538.17 1070.88 1538.46 1066.66H1535.76C1535.72 1069.22 1534.1 1071.24 1531.4 1071.24C1526.22 1071.24 1525.82 1064.04 1525.82 1060.26C1525.82 1056.26 1526.18 1048.84 1531.66 1048.84C1533.85 1048.84 1535.4 1050.54 1535.44 1052.7H1538.14ZM1554.68 1061.62C1554.68 1068.14 1551.59 1071.13 1548.92 1071.13C1546.55 1071.13 1546.55 1068.14 1546.55 1066.34V1053.74H1543.85V1067.13C1543.85 1070.48 1545.29 1073.4 1548.71 1073.4C1551.19 1073.4 1553.78 1071.42 1555.04 1069.29L1555.65 1073H1558.21C1557.45 1069.72 1557.38 1066.41 1557.38 1063.06V1053.74H1554.68V1061.62ZM1576.23 1055.58C1574.32 1054.21 1572.42 1053.34 1570 1053.34C1566.66 1053.34 1564.06 1055.61 1564.06 1058.42C1564.06 1061.88 1567.23 1063.17 1569.97 1064.22C1571.95 1064.97 1573.96 1065.66 1573.96 1068.18C1573.96 1070.12 1572.42 1071.13 1570.62 1071.13C1568.35 1071.13 1565.86 1069.51 1564.35 1067.89L1562.88 1070.05C1565 1071.96 1567.88 1073.4 1570.8 1073.4C1573.78 1073.4 1576.66 1071.24 1576.66 1068.07C1576.66 1064.25 1573.5 1062.99 1570.47 1061.88C1569 1061.34 1566.76 1060.4 1566.76 1058.53C1566.76 1056.8 1568.28 1055.61 1569.9 1055.61C1571.84 1055.61 1573.53 1056.69 1575.04 1057.77L1576.23 1055.58ZM1595.95 1053.74H1589.07V1047.84H1586.37V1053.74H1582.23V1056.01H1586.37V1066.12C1586.37 1071.88 1588.35 1073.4 1591.48 1073.4C1594.72 1073.4 1596.92 1071.16 1598.21 1068.39L1595.62 1067.74C1594.87 1069.44 1593.61 1071.13 1591.55 1071.13C1589.11 1071.13 1589.07 1068.86 1589.07 1066.99V1056.01H1595.95V1053.74ZM1609.9 1073.4C1613.61 1073.4 1617.57 1070.84 1617.57 1063.39C1617.57 1060.26 1616.7 1053.34 1609.9 1053.34C1606.23 1053.34 1602.27 1055.94 1602.27 1063.39C1602.27 1071.16 1606.55 1073.4 1609.9 1073.4ZM1609.9 1071.13C1605.69 1071.13 1604.97 1066.7 1604.97 1063.39C1604.97 1060.08 1605.69 1055.61 1609.9 1055.61C1614.11 1055.61 1614.87 1060.08 1614.87 1063.39C1614.87 1066.7 1614.11 1071.13 1609.9 1071.13ZM1621.33 1073H1624.03V1057.95C1624.54 1056.76 1625.83 1055.61 1627.13 1055.61C1628.35 1055.61 1628.64 1056.8 1628.64 1057.81V1073H1631.34V1057.63C1631.92 1056.62 1632.96 1055.61 1634.19 1055.61C1635.27 1055.61 1635.95 1056.33 1635.95 1057.63V1073H1638.65V1057.63C1638.65 1055.04 1636.99 1053.34 1634.4 1053.34C1632.82 1053.34 1631.81 1054.1 1630.69 1055.11C1629.65 1053.78 1629.18 1053.34 1627.42 1053.34C1625.8 1053.34 1624.79 1054.06 1623.64 1055.07L1623.24 1053.34H1620.54C1620.97 1055.36 1621.33 1057.09 1621.33 1059.72V1073ZM1657.32 1064.07V1062.6C1657.32 1060.51 1656.31 1053.34 1649.9 1053.34C1644.14 1053.34 1641.8 1058.46 1641.8 1063.5C1641.8 1068.5 1644.07 1073.4 1649.76 1073.4C1652.42 1073.4 1654.73 1072.57 1657.14 1071.49L1655.99 1069.08C1654.22 1070.16 1652.1 1071.13 1649.98 1071.13C1647.02 1071.13 1644.65 1069.36 1644.5 1064.07H1657.32ZM1644.47 1061.8C1645.19 1057.92 1646.66 1055.61 1649.69 1055.61C1652.71 1055.61 1654.51 1058.64 1654.62 1061.8H1644.47ZM1666.81 1064.97C1666.81 1058.64 1670.45 1055.61 1672.43 1055.61C1674.48 1055.61 1674.26 1058.35 1674.33 1059.79H1677.03C1677.03 1056.87 1676.17 1053.34 1672.57 1053.34C1669.69 1053.34 1668.07 1055.14 1666.59 1057.41L1665.98 1053.74H1663.35C1663.86 1056.15 1664.11 1058.74 1664.11 1061.95V1073H1666.81V1064.97Z" fill="black"/>
<circle cx="845.5" cy="152" r="50" fill="#D9D9D9"/>
<circle cx="775.5" cy="92" r="50" fill="#D9D9D9"/>
<circle cx="915.5" cy="92" r="50" fill="#D9D9D9"/>
<path d="M687.724 245C692.26 245 694.996 241.724 694.996 237.944C694.996 234.596 693.412 232.652 690.46 231.212C692.584 230.024 693.88 228.116 693.88 225.632C693.88 219.44 688.732 219.08 685.744 219.08H680.308V245H687.724ZM683.008 221.348H685.924C687.58 221.348 691.18 221.24 691.18 225.524C691.18 228.62 688.552 230.384 686.14 230.384H683.008V221.348ZM683.008 242.732V232.652H686.392C690.496 232.652 692.296 235.208 692.296 238.088C692.296 241.328 689.92 242.732 687.544 242.732H683.008ZM711.145 233.624C711.145 240.14 708.049 243.128 705.385 243.128C703.009 243.128 703.009 240.14 703.009 238.34V225.74H700.309V239.132C700.309 242.48 701.749 245.396 705.169 245.396C707.653 245.396 710.245 243.416 711.505 241.292L712.117 245H714.673C713.917 241.724 713.845 238.412 713.845 235.064V225.74H711.145V233.624ZM732.695 227.576C730.787 226.208 728.879 225.344 726.467 225.344C723.119 225.344 720.527 227.612 720.527 230.42C720.527 233.876 723.695 235.172 726.431 236.216C728.411 236.972 730.427 237.656 730.427 240.176C730.427 242.12 728.879 243.128 727.079 243.128C724.811 243.128 722.327 241.508 720.815 239.888L719.339 242.048C721.463 243.956 724.343 245.396 727.259 245.396C730.247 245.396 733.127 243.236 733.127 240.068C733.127 236.252 729.959 234.992 726.935 233.876C725.459 233.336 723.227 232.4 723.227 230.528C723.227 228.8 724.739 227.612 726.359 227.612C728.303 227.612 729.995 228.692 731.507 229.772L732.695 227.576ZM745.713 245H748.413V225.74H740.241V228.008H745.713V245ZM746.973 218.576C745.713 218.576 744.705 219.548 744.705 220.844C744.705 222.14 745.713 223.112 746.973 223.112C748.233 223.112 749.241 222.14 749.241 220.844C749.241 219.548 748.233 218.576 746.973 218.576ZM762.259 236.972C762.259 230.204 765.463 227.612 768.019 227.612C770.395 227.612 770.395 230.384 770.395 232.22V245H773.095V231.428C773.095 228.152 771.511 225.344 768.451 225.344C765.751 225.344 763.267 227 761.899 229.268L761.287 225.74H758.695C759.415 228.8 759.559 232.076 759.559 235.316V245H762.259V236.972ZM793.997 236.072V234.596C793.997 232.508 792.989 225.344 786.581 225.344C780.821 225.344 778.481 230.456 778.481 235.496C778.481 240.5 780.749 245.396 786.437 245.396C789.101 245.396 791.405 244.568 793.817 243.488L792.665 241.076C790.901 242.156 788.777 243.128 786.653 243.128C783.701 243.128 781.325 241.364 781.181 236.072H793.997ZM781.145 233.804C781.865 229.916 783.341 227.612 786.365 227.612C789.389 227.612 791.189 230.636 791.297 233.804H781.145ZM811.839 227.576C809.931 226.208 808.023 225.344 805.611 225.344C802.263 225.344 799.671 227.612 799.671 230.42C799.671 233.876 802.839 235.172 805.575 236.216C807.555 236.972 809.571 237.656 809.571 240.176C809.571 242.12 808.023 243.128 806.223 243.128C803.955 243.128 801.471 241.508 799.959 239.888L798.483 242.048C800.607 243.956 803.487 245.396 806.403 245.396C809.391 245.396 812.271 243.236 812.271 240.068C812.271 236.252 809.103 234.992 806.079 233.876C804.603 233.336 802.371 232.4 802.371 230.528C802.371 228.8 803.883 227.612 805.503 227.612C807.447 227.612 809.139 228.692 810.651 229.772L811.839 227.576ZM831.625 227.576C829.717 226.208 827.809 225.344 825.397 225.344C822.049 225.344 819.457 227.612 819.457 230.42C819.457 233.876 822.625 235.172 825.361 236.216C827.341 236.972 829.357 237.656 829.357 240.176C829.357 242.12 827.809 243.128 826.009 243.128C823.741 243.128 821.257 241.508 819.745 239.888L818.269 242.048C820.393 243.956 823.273 245.396 826.189 245.396C829.177 245.396 832.057 243.236 832.057 240.068C832.057 236.252 828.889 234.992 825.865 233.876C824.389 233.336 822.157 232.4 822.157 230.528C822.157 228.8 823.669 227.612 825.289 227.612C827.233 227.612 828.925 228.692 830.437 229.772L831.625 227.576ZM859.317 245H862.017V234.812H864.285C869.361 234.812 872.961 232.472 872.961 227C872.961 221.888 870.225 219.08 865.545 219.08H859.317V245ZM862.017 232.544V221.348H865.185C868.389 221.348 870.261 222.968 870.261 227.036C870.261 230.672 868.137 232.544 865.005 232.544H862.017ZM879.931 229.052C881.479 228.404 883.063 227.612 884.755 227.612C886.771 227.612 888.067 229.124 888.067 231.248V233.084C886.843 232.58 885.475 232.148 884.035 232.148C880.147 232.148 877.879 235.388 877.879 239.096C877.879 242.516 879.931 245.396 883.603 245.396C885.619 245.396 887.095 244.604 888.391 243.056L889.075 245.468L891.595 245.144C891.019 243.488 890.767 241.688 890.767 239.924V231.572C890.767 228.368 888.535 225.344 884.863 225.344C882.847 225.344 881.155 225.956 879.319 226.676L879.931 229.052ZM888.067 239.816C886.951 241.364 885.691 243.128 883.603 243.128C881.515 243.128 880.579 241.04 880.579 239.24C880.579 236.792 881.659 234.416 884.395 234.416C885.691 234.416 886.915 234.848 888.067 235.352V239.816ZM902.417 236.972C902.417 230.636 906.053 227.612 908.033 227.612C910.085 227.612 909.869 230.348 909.941 231.788H912.641C912.641 228.872 911.777 225.344 908.177 225.344C905.297 225.344 903.677 227.144 902.201 229.412L901.589 225.74H898.961C899.465 228.152 899.717 230.744 899.717 233.948V245H902.417V236.972ZM930.483 225.74H923.607V219.836H920.907V225.74H916.767V228.008H920.907V238.124C920.907 243.884 922.887 245.396 926.019 245.396C929.259 245.396 931.455 243.164 932.751 240.392L930.159 239.744C929.403 241.436 928.143 243.128 926.091 243.128C923.643 243.128 923.607 240.86 923.607 238.988V228.008H930.483V225.74ZM940.333 236.972C940.333 230.204 943.537 227.612 946.093 227.612C948.469 227.612 948.469 230.384 948.469 232.22V245H951.169V231.428C951.169 228.152 949.585 225.344 946.525 225.344C943.825 225.344 941.341 227 939.973 229.268L939.361 225.74H936.769C937.489 228.8 937.633 232.076 937.633 235.316V245H940.333V236.972ZM972.071 236.072V234.596C972.071 232.508 971.063 225.344 964.655 225.344C958.895 225.344 956.555 230.456 956.555 235.496C956.555 240.5 958.823 245.396 964.511 245.396C967.175 245.396 969.479 244.568 971.891 243.488L970.739 241.076C968.975 242.156 966.851 243.128 964.727 243.128C961.775 243.128 959.399 241.364 959.255 236.072H972.071ZM959.219 233.804C959.939 229.916 961.415 227.612 964.439 227.612C967.463 227.612 969.263 230.636 969.371 233.804H959.219ZM981.561 236.972C981.561 230.636 985.197 227.612 987.177 227.612C989.229 227.612 989.013 230.348 989.085 231.788H991.785C991.785 228.872 990.921 225.344 987.321 225.344C984.441 225.344 982.821 227.144 981.345 229.412L980.733 225.74H978.105C978.609 228.152 978.861 230.744 978.861 233.948V245H981.561V236.972ZM1009.7 227.576C1007.79 226.208 1005.88 225.344 1003.47 225.344C1000.12 225.344 997.531 227.612 997.531 230.42C997.531 233.876 1000.7 235.172 1003.43 236.216C1005.41 236.972 1007.43 237.656 1007.43 240.176C1007.43 242.12 1005.88 243.128 1004.08 243.128C1001.81 243.128 999.331 241.508 997.819 239.888L996.343 242.048C998.467 243.956 1001.35 245.396 1004.26 245.396C1007.25 245.396 1010.13 243.236 1010.13 240.068C1010.13 236.252 1006.96 234.992 1003.94 233.876C1002.46 233.336 1000.23 232.4 1000.23 230.528C1000.23 228.8 1001.74 227.612 1003.36 227.612C1005.31 227.612 1007 228.692 1008.51 229.772L1009.7 227.576ZM532.483 277.928C528.707 275.208 527.331 270.856 527.331 266.376C527.331 261.896 528.707 257.544 532.483 254.856L531.331 253.256C526.947 256.104 524.931 261.32 524.931 266.376C524.931 271.432 526.947 276.712 531.331 279.496L532.483 277.928ZM544.279 253.96H541.879V277H554.263V274.984H544.279V253.96ZM563.338 277H565.738V259.88H558.474V261.896H563.338V277ZM564.458 253.512C563.338 253.512 562.442 254.376 562.442 255.528C562.442 256.68 563.338 257.544 564.458 257.544C565.578 257.544 566.474 256.68 566.474 255.528C566.474 254.376 565.578 253.512 564.458 253.512ZM585.822 259.88L581.63 273.16L577.47 259.88H574.974L580.286 277.224H583.006L588.318 259.88H585.822ZM606.257 269.064V267.752C606.257 265.896 605.361 259.528 599.665 259.528C594.545 259.528 592.465 264.072 592.465 268.552C592.465 273 594.481 277.352 599.537 277.352C601.905 277.352 603.953 276.616 606.097 275.656L605.073 273.512C603.505 274.472 601.617 275.336 599.729 275.336C597.105 275.336 594.993 273.768 594.865 269.064H606.257ZM594.833 267.048C595.473 263.592 596.785 261.544 599.473 261.544C602.161 261.544 603.761 264.232 603.857 267.048H594.833ZM628.536 277H630.936V258.696L631 258.632L638.552 277.224H640.824V253.96H638.424V271.176H638.328L631.32 253.96H628.536V277ZM647.468 262.824C648.844 262.248 650.252 261.544 651.756 261.544C653.548 261.544 654.7 262.888 654.7 264.776V266.408C653.612 265.96 652.396 265.576 651.116 265.576C647.66 265.576 645.644 268.456 645.644 271.752C645.644 274.792 647.468 277.352 650.732 277.352C652.524 277.352 653.836 276.648 654.988 275.272L655.596 277.416L657.836 277.128C657.324 275.656 657.1 274.056 657.1 272.488V265.064C657.1 262.216 655.116 259.528 651.852 259.528C650.06 259.528 648.556 260.072 646.924 260.712L647.468 262.824ZM654.7 272.392C653.708 273.768 652.588 275.336 650.732 275.336C648.876 275.336 648.044 273.48 648.044 271.88C648.044 269.704 649.004 267.592 651.436 267.592C652.588 267.592 653.676 267.976 654.7 268.424V272.392ZM674.815 259.88H668.703V254.632H666.303V259.88H662.623V261.896H666.303V270.888C666.303 276.008 668.063 277.352 670.847 277.352C673.727 277.352 675.679 275.368 676.831 272.904L674.527 272.328C673.855 273.832 672.735 275.336 670.911 275.336C668.735 275.336 668.703 273.32 668.703 271.656V261.896H674.815V259.88ZM686.451 277H688.851V259.88H681.587V261.896H686.451V277ZM687.571 253.512C686.451 253.512 685.555 254.376 685.555 255.528C685.555 256.68 686.451 257.544 687.571 257.544C688.691 257.544 689.587 256.68 689.587 255.528C689.587 254.376 688.691 253.512 687.571 253.512ZM704.806 277.352C708.102 277.352 711.622 275.08 711.622 268.456C711.622 265.672 710.854 259.528 704.806 259.528C701.542 259.528 698.022 261.832 698.022 268.456C698.022 275.368 701.83 277.352 704.806 277.352ZM704.806 275.336C701.062 275.336 700.422 271.4 700.422 268.456C700.422 265.512 701.062 261.544 704.806 261.544C708.55 261.544 709.222 265.512 709.222 268.456C709.222 271.4 708.55 275.336 704.806 275.336ZM718.746 269.864C718.746 263.848 721.594 261.544 723.866 261.544C725.978 261.544 725.978 264.008 725.978 265.64V277H728.378V264.936C728.378 262.024 726.97 259.528 724.25 259.528C721.85 259.528 719.642 261 718.426 263.016L717.882 259.88H715.578C716.218 262.6 716.346 265.512 716.346 268.392V277H718.746V269.864ZM736.365 277.864L745.997 253.096H743.597L733.965 277.864H736.365ZM764.129 258.952C763.937 255.752 761.537 253.512 758.337 253.512C751.841 253.512 750.785 260.552 750.785 265.608C750.785 270.504 751.713 277.448 758.049 277.448C761.889 277.448 764.161 275.112 764.417 271.368H762.017C761.985 273.64 760.545 275.432 758.145 275.432C753.537 275.432 753.185 269.032 753.185 265.672C753.185 262.12 753.505 255.528 758.369 255.528C760.321 255.528 761.697 257.032 761.729 258.952H764.129ZM775.156 277.352C778.452 277.352 781.972 275.08 781.972 268.456C781.972 265.672 781.204 259.528 775.156 259.528C771.892 259.528 768.372 261.832 768.372 268.456C768.372 275.368 772.18 277.352 775.156 277.352ZM775.156 275.336C771.412 275.336 770.772 271.4 770.772 268.456C770.772 265.512 771.412 261.544 775.156 261.544C778.9 261.544 779.572 265.512 779.572 268.456C779.572 271.4 778.9 275.336 775.156 275.336ZM785.32 277H787.72V263.624C788.168 262.568 789.32 261.544 790.472 261.544C791.56 261.544 791.816 262.6 791.816 263.496V277H794.216V263.336C794.728 262.44 795.656 261.544 796.744 261.544C797.704 261.544 798.312 262.184 798.312 263.336V277H800.712V263.336C800.712 261.032 799.24 259.528 796.936 259.528C795.528 259.528 794.632 260.2 793.64 261.096C792.712 259.912 792.296 259.528 790.728 259.528C789.288 259.528 788.392 260.168 787.368 261.064L787.016 259.528H784.616C785 261.32 785.32 262.856 785.32 265.192V277ZM802.907 277H805.307V263.624C805.755 262.568 806.907 261.544 808.059 261.544C809.147 261.544 809.403 262.6 809.403 263.496V277H811.803V263.336C812.315 262.44 813.243 261.544 814.331 261.544C815.291 261.544 815.899 262.184 815.899 263.336V277H818.299V263.336C818.299 261.032 816.827 259.528 814.523 259.528C813.115 259.528 812.219 260.2 811.227 261.096C810.299 259.912 809.883 259.528 808.315 259.528C806.875 259.528 805.979 260.168 804.955 261.064L804.603 259.528H802.203C802.587 261.32 802.907 262.856 802.907 265.192V277ZM827.919 277.352C831.215 277.352 834.735 275.08 834.735 268.456C834.735 265.672 833.967 259.528 827.919 259.528C824.655 259.528 821.135 261.832 821.135 268.456C821.135 275.368 824.943 277.352 827.919 277.352ZM827.919 275.336C824.175 275.336 823.535 271.4 823.535 268.456C823.535 265.512 824.175 261.544 827.919 261.544C831.663 261.544 832.335 265.512 832.335 268.456C832.335 271.4 831.663 275.336 827.919 275.336ZM841.858 269.864C841.858 263.848 844.706 261.544 846.978 261.544C849.09 261.544 849.09 264.008 849.09 265.64V277H851.49V264.936C851.49 262.024 850.082 259.528 847.362 259.528C844.962 259.528 842.754 261 841.538 263.016L840.994 259.88H838.69C839.33 262.6 839.458 265.512 839.458 268.392V277H841.858V269.864ZM874.665 277H880.169C885.193 277 887.945 274.344 887.945 265.48C887.945 256.488 884.969 253.96 880.521 253.96H874.665V277ZM877.065 255.976H879.945C883.017 255.976 885.545 256.648 885.545 265.48C885.545 274.056 883.337 274.984 880.009 274.984H877.065V255.976ZM905.245 269.064V267.752C905.245 265.896 904.349 259.528 898.653 259.528C893.533 259.528 891.453 264.072 891.453 268.552C891.453 273 893.469 277.352 898.525 277.352C900.893 277.352 902.941 276.616 905.085 275.656L904.061 273.512C902.493 274.472 900.605 275.336 898.717 275.336C896.093 275.336 893.981 273.768 893.853 269.064H905.245ZM893.821 267.048C894.461 263.592 895.773 261.544 898.461 261.544C901.149 261.544 902.749 264.232 902.845 267.048H893.821ZM921.104 261.512C919.408 260.296 917.712 259.528 915.568 259.528C912.592 259.528 910.288 261.544 910.288 264.04C910.288 267.112 913.104 268.264 915.536 269.192C917.296 269.864 919.088 270.472 919.088 272.712C919.088 274.44 917.712 275.336 916.112 275.336C914.096 275.336 911.888 273.896 910.544 272.456L909.232 274.376C911.12 276.072 913.68 277.352 916.272 277.352C918.928 277.352 921.488 275.432 921.488 272.616C921.488 269.224 918.672 268.104 915.984 267.112C914.672 266.632 912.688 265.8 912.688 264.136C912.688 262.6 914.032 261.544 915.472 261.544C917.2 261.544 918.704 262.504 920.048 263.464L921.104 261.512ZM937.156 259.88C935.332 262.632 932.996 265.032 930.724 267.368V253.256H928.324V277H930.724V270.216L931.812 269.128L938.532 277H941.7L933.284 267.72C935.812 265.16 936.804 263.816 940.196 259.88H937.156ZM947.415 277.864L957.047 253.096H954.647L945.015 277.864H947.415ZM976.331 253.96H960.939V255.976H967.371V277H969.771V255.976H976.331V253.96ZM993.022 253.96H981.054V277H993.246V274.984H983.454V266.184H990.334V264.168H983.454V255.976H993.022V253.96ZM997.778 277H1003.28C1008.31 277 1011.06 274.344 1011.06 265.48C1011.06 256.488 1008.08 253.96 1003.63 253.96H997.778V277ZM1000.18 255.976H1003.06C1006.13 255.976 1008.66 256.648 1008.66 265.48C1008.66 274.056 1006.45 274.984 1003.12 274.984H1000.18V255.976ZM1028.01 259.88H1025.29L1021.38 265.896L1017.38 259.88H1014.6L1020.04 267.848L1013.32 277H1016.36L1021.35 269.608L1026.41 277H1029.45L1022.69 267.752L1028.01 259.88ZM1034.97 253.96H1032.57V277H1034.97V266.056H1042.97V277H1045.37V253.96H1042.97V264.04H1034.97V253.96ZM1056.56 277.352C1059.85 277.352 1063.37 275.08 1063.37 268.456C1063.37 265.672 1062.6 259.528 1056.56 259.528C1053.29 259.528 1049.77 261.832 1049.77 268.456C1049.77 275.368 1053.58 277.352 1056.56 277.352ZM1056.56 275.336C1052.81 275.336 1052.17 271.4 1052.17 268.456C1052.17 265.512 1052.81 261.544 1056.56 261.544C1060.3 261.544 1060.97 265.512 1060.97 268.456C1060.97 271.4 1060.3 275.336 1056.56 275.336ZM1077.82 266.888C1077.82 272.68 1075.07 275.336 1072.7 275.336C1070.59 275.336 1070.59 272.68 1070.59 271.08V259.88H1068.19V271.784C1068.19 274.76 1069.47 277.352 1072.51 277.352C1074.72 277.352 1077.02 275.592 1078.14 273.704L1078.69 277H1080.96C1080.29 274.088 1080.22 271.144 1080.22 268.168V259.88H1077.82V266.888ZM1096.98 261.512C1095.28 260.296 1093.59 259.528 1091.44 259.528C1088.47 259.528 1086.16 261.544 1086.16 264.04C1086.16 267.112 1088.98 268.264 1091.41 269.192C1093.17 269.864 1094.96 270.472 1094.96 272.712C1094.96 274.44 1093.59 275.336 1091.99 275.336C1089.97 275.336 1087.76 273.896 1086.42 272.456L1085.11 274.376C1087 276.072 1089.56 277.352 1092.15 277.352C1094.8 277.352 1097.36 275.432 1097.36 272.616C1097.36 269.224 1094.55 268.104 1091.86 267.112C1090.55 266.632 1088.56 265.8 1088.56 264.136C1088.56 262.6 1089.91 261.544 1091.35 261.544C1093.08 261.544 1094.58 262.504 1095.92 263.464L1096.98 261.512ZM1114.5 259.88H1108.39V254.632H1105.99V259.88H1102.31V261.896H1105.99V270.888C1105.99 276.008 1107.75 277.352 1110.53 277.352C1113.41 277.352 1115.37 275.368 1116.52 272.904L1114.21 272.328C1113.54 273.832 1112.42 275.336 1110.6 275.336C1108.42 275.336 1108.39 273.32 1108.39 271.656V261.896H1114.5V259.88ZM1126.91 277.352C1130.2 277.352 1133.72 275.08 1133.72 268.456C1133.72 265.672 1132.95 259.528 1126.91 259.528C1123.64 259.528 1120.12 261.832 1120.12 268.456C1120.12 275.368 1123.93 277.352 1126.91 277.352ZM1126.91 275.336C1123.16 275.336 1122.52 271.4 1122.52 268.456C1122.52 265.512 1123.16 261.544 1126.91 261.544C1130.65 261.544 1131.32 265.512 1131.32 268.456C1131.32 271.4 1130.65 275.336 1126.91 275.336ZM1140.85 269.864C1140.85 263.848 1143.69 261.544 1145.97 261.544C1148.08 261.544 1148.08 264.008 1148.08 265.64V277H1150.48V264.936C1150.48 262.024 1149.07 259.528 1146.35 259.528C1143.95 259.528 1141.74 261 1140.53 263.016L1139.98 259.88H1137.68C1138.32 262.6 1138.45 265.512 1138.45 268.392V277H1140.85V269.864ZM1158.47 277.864L1168.1 253.096H1165.7L1156.07 277.864H1158.47ZM664.319 309H666.719V299.944H668.735C673.247 299.944 676.447 297.864 676.447 293C676.447 288.456 674.015 285.96 669.855 285.96H664.319V309ZM666.719 297.928V287.976H669.535C672.383 287.976 674.047 289.416 674.047 293.032C674.047 296.264 672.159 297.928 669.375 297.928H666.719ZM682.643 294.824C684.019 294.248 685.427 293.544 686.931 293.544C688.723 293.544 689.875 294.888 689.875 296.776V298.408C688.787 297.96 687.571 297.576 686.291 297.576C682.835 297.576 680.819 300.456 680.819 303.752C680.819 306.792 682.643 309.352 685.907 309.352C687.699 309.352 689.011 308.648 690.163 307.272L690.771 309.416L693.011 309.128C692.499 307.656 692.275 306.056 692.275 304.488V297.064C692.275 294.216 690.291 291.528 687.027 291.528C685.235 291.528 683.731 292.072 682.099 292.712L682.643 294.824ZM689.875 304.392C688.883 305.768 687.763 307.336 685.907 307.336C684.051 307.336 683.219 305.48 683.219 303.88C683.219 301.704 684.179 299.592 686.611 299.592C687.763 299.592 688.851 299.976 689.875 300.424V304.392ZM702.63 301.864C702.63 296.232 705.862 293.544 707.622 293.544C709.446 293.544 709.254 295.976 709.318 297.256H711.718C711.718 294.664 710.95 291.528 707.75 291.528C705.19 291.528 703.75 293.128 702.438 295.144L701.894 291.88H699.558C700.006 294.024 700.23 296.328 700.23 299.176V309H702.63V301.864ZM726.106 291.88C724.282 294.632 721.946 297.032 719.674 299.368V285.256H717.274V309H719.674V302.216L720.762 301.128L727.482 309H730.65L722.234 299.72C724.762 297.16 725.754 295.816 729.146 291.88H726.106ZM739.213 309H741.613V291.88H734.349V293.896H739.213V309ZM740.333 285.512C739.213 285.512 738.317 286.376 738.317 287.528C738.317 288.68 739.213 289.544 740.333 289.544C741.453 289.544 742.349 288.68 742.349 287.528C742.349 286.376 741.453 285.512 740.333 285.512ZM753.921 301.864C753.921 295.848 756.769 293.544 759.041 293.544C761.153 293.544 761.153 296.008 761.153 297.64V309H763.553V296.936C763.553 294.024 762.145 291.528 759.425 291.528C757.025 291.528 754.817 293 753.601 295.016L753.057 291.88H750.753C751.393 294.6 751.521 297.512 751.521 300.392V309H753.921V301.864ZM779.604 291.528L779.156 293.032C777.844 292.072 776.596 291.528 774.964 291.528C770.228 291.528 768.436 295.784 768.436 299.848C768.436 303.56 770.452 307.56 774.644 307.56C776.34 307.56 777.428 306.984 778.74 306.12V307.464C778.74 309.896 777.588 312.2 775.06 312.2C773.46 312.2 771.988 311.368 771.028 310.12L769.332 311.592C770.676 313.064 772.756 314.216 774.772 314.216C777.236 314.216 781.14 312.68 781.14 307.336V297.928C781.14 295.752 781.3 293.608 781.876 291.528H779.604ZM778.74 303.304C778.004 304.552 776.244 305.544 774.772 305.544C772.436 305.544 770.836 302.888 770.836 299.56C770.836 296.936 771.828 293.544 774.996 293.544C776.468 293.544 777.972 294.504 778.74 295.656V303.304ZM805.019 309H807.419V299.944H809.435C813.947 299.944 817.147 297.864 817.147 293C817.147 288.456 814.715 285.96 810.555 285.96H805.019V309ZM807.419 297.928V287.976H810.235C813.083 287.976 814.747 289.416 814.747 293.032C814.747 296.264 812.859 297.928 810.075 297.928H807.419ZM823.343 294.824C824.719 294.248 826.127 293.544 827.631 293.544C829.423 293.544 830.575 294.888 830.575 296.776V298.408C829.487 297.96 828.271 297.576 826.991 297.576C823.535 297.576 821.519 300.456 821.519 303.752C821.519 306.792 823.343 309.352 826.607 309.352C828.399 309.352 829.711 308.648 830.863 307.272L831.471 309.416L833.711 309.128C833.199 307.656 832.975 306.056 832.975 304.488V297.064C832.975 294.216 830.991 291.528 827.727 291.528C825.935 291.528 824.431 292.072 822.799 292.712L823.343 294.824ZM830.575 304.392C829.583 305.768 828.463 307.336 826.607 307.336C824.751 307.336 823.919 305.48 823.919 303.88C823.919 301.704 824.879 299.592 827.311 299.592C828.463 299.592 829.551 299.976 830.575 300.424V304.392ZM843.33 301.864C843.33 296.232 846.562 293.544 848.322 293.544C850.146 293.544 849.954 295.976 850.018 297.256H852.418C852.418 294.664 851.65 291.528 848.45 291.528C845.89 291.528 844.45 293.128 843.138 295.144L842.594 291.88H840.258C840.706 294.024 840.93 296.328 840.93 299.176V309H843.33V301.864ZM868.278 291.88H862.166V286.632H859.766V291.88H856.086V293.896H859.766V302.888C859.766 308.008 861.526 309.352 864.31 309.352C867.19 309.352 869.142 307.368 870.294 304.904L867.99 304.328C867.318 305.832 866.198 307.336 864.374 307.336C862.198 307.336 862.166 305.32 862.166 303.656V293.896H868.278V291.88ZM877.033 301.864C877.033 295.848 879.881 293.544 882.153 293.544C884.265 293.544 884.265 296.008 884.265 297.64V309H886.665V296.936C886.665 294.024 885.257 291.528 882.537 291.528C880.137 291.528 877.929 293 876.713 295.016L876.169 291.88H873.865C874.505 294.6 874.633 297.512 874.633 300.392V309H877.033V301.864ZM905.245 301.064V299.752C905.245 297.896 904.349 291.528 898.653 291.528C893.533 291.528 891.453 296.072 891.453 300.552C891.453 305 893.469 309.352 898.525 309.352C900.893 309.352 902.941 308.616 905.085 307.656L904.061 305.512C902.493 306.472 900.605 307.336 898.717 307.336C896.093 307.336 893.981 305.768 893.853 301.064H905.245ZM893.821 299.048C894.461 295.592 895.773 293.544 898.461 293.544C901.149 293.544 902.749 296.232 902.845 299.048H893.821ZM913.68 301.864C913.68 296.232 916.912 293.544 918.672 293.544C920.496 293.544 920.304 295.976 920.368 297.256H922.768C922.768 294.664 922 291.528 918.8 291.528C916.24 291.528 914.8 293.128 913.488 295.144L912.944 291.88H910.608C911.056 294.024 911.28 296.328 911.28 299.176V309H913.68V301.864ZM938.692 293.512C936.996 292.296 935.3 291.528 933.156 291.528C930.18 291.528 927.876 293.544 927.876 296.04C927.876 299.112 930.692 300.264 933.124 301.192C934.884 301.864 936.676 302.472 936.676 304.712C936.676 306.44 935.3 307.336 933.7 307.336C931.684 307.336 929.476 305.896 928.132 304.456L926.82 306.376C928.708 308.072 931.268 309.352 933.86 309.352C936.516 309.352 939.076 307.432 939.076 304.616C939.076 301.224 936.26 300.104 933.572 299.112C932.26 298.632 930.276 297.8 930.276 296.136C930.276 294.6 931.62 293.544 933.06 293.544C934.788 293.544 936.292 294.504 937.636 295.464L938.692 293.512ZM947.415 309.864L957.047 285.096H954.647L945.015 309.864H947.415ZM966.059 306.952C966.059 308.36 967.243 309.448 968.651 309.448C970.027 309.448 971.211 308.36 971.211 306.952C971.211 305.544 970.027 304.488 968.651 304.488C967.275 304.488 966.059 305.544 966.059 306.952ZM983.646 306.952C983.646 308.36 984.83 309.448 986.238 309.448C987.614 309.448 988.798 308.36 988.798 306.952C988.798 305.544 987.614 304.488 986.238 304.488C984.862 304.488 983.646 305.544 983.646 306.952ZM1001.23 306.952C1001.23 308.36 1002.42 309.448 1003.83 309.448C1005.2 309.448 1006.39 308.36 1006.39 306.952C1006.39 305.544 1005.2 304.488 1003.83 304.488C1002.45 304.488 1001.23 305.544 1001.23 306.952ZM1017.83 286.856C1021.61 289.544 1022.98 293.928 1022.98 298.376C1022.98 302.856 1021.61 307.24 1017.83 309.928L1018.98 311.496C1023.37 308.68 1025.38 303.432 1025.38 298.376C1025.38 293.32 1023.37 288.104 1018.98 285.256L1017.83 286.856Z" fill="black"/>
<path d="M1166.94 418.061C1167.53 418.646 1168.47 418.646 1169.06 418.061L1178.61 408.515C1179.19 407.929 1179.19 406.979 1178.61 406.393C1178.02 405.808 1177.07 405.808 1176.49 406.393L1168 414.879L1159.51 406.393C1158.93 405.808 1157.98 405.808 1157.39 406.393C1156.81 406.979 1156.81 407.929 1157.39 408.515L1166.94 418.061ZM844 317V319.5H847V317H844ZM844 324.5V329.5H847V324.5H844ZM844 334.5V339.5H847V334.5H844ZM844 344.5V347H847V344.5H844ZM844 347C844 347.95 844.062 348.887 844.182 349.806L847.156 349.418C847.053 348.627 847 347.82 847 347H844ZM845.632 355.23C846.357 356.979 847.306 358.611 848.443 360.09L850.821 358.262C849.843 356.988 849.027 355.584 848.403 354.081L845.632 355.23ZM852.41 364.057C853.889 365.194 855.521 366.143 857.27 366.868L858.419 364.097C856.916 363.473 855.512 362.657 854.238 361.679L852.41 364.057ZM862.694 368.318C863.613 368.438 864.55 368.5 865.5 368.5V365.5C864.68 365.5 863.873 365.447 863.082 365.344L862.694 368.318ZM865.5 368.5H868.443V365.5H865.5V368.5ZM874.328 368.5H880.214V365.5H874.328V368.5ZM886.099 368.5H891.984V365.5H886.099V368.5ZM897.87 368.5H903.755V365.5H897.87V368.5ZM909.641 368.5H915.526V365.5H909.641V368.5ZM921.411 368.5H927.297V365.5H921.411V368.5ZM933.182 368.5H939.068V365.5H933.182V368.5ZM944.953 368.5H950.839V365.5H944.953V368.5ZM956.724 368.5H962.609V365.5H956.724V368.5ZM968.495 368.5H974.38V365.5H968.495V368.5ZM980.266 368.5H986.151V365.5H980.266V368.5ZM992.036 368.5H997.922V365.5H992.036V368.5ZM1003.81 368.5H1009.69V365.5H1003.81V368.5ZM1015.58 368.5H1021.46V365.5H1015.58V368.5ZM1027.35 368.5H1033.23V365.5H1027.35V368.5ZM1039.12 368.5H1045.01V365.5H1039.12V368.5ZM1050.89 368.5H1056.78V365.5H1050.89V368.5ZM1062.66 368.5H1068.55V365.5H1062.66V368.5ZM1074.43 368.5H1080.32V365.5H1074.43V368.5ZM1086.2 368.5H1092.09V365.5H1086.2V368.5ZM1097.97 368.5H1103.86V365.5H1097.97V368.5ZM1109.74 368.5H1115.63V365.5H1109.74V368.5ZM1121.52 368.5H1127.4V365.5H1121.52V368.5ZM1133.29 368.5H1139.17V365.5H1133.29V368.5ZM1145.06 368.5H1148V365.5H1145.06V368.5ZM1148 368.5C1148.82 368.5 1149.63 368.553 1150.42 368.656L1150.81 365.682C1149.89 365.562 1148.95 365.5 1148 365.5V368.5ZM1155.08 369.903C1156.58 370.527 1157.99 371.343 1159.26 372.321L1161.09 369.943C1159.61 368.806 1157.98 367.857 1156.23 367.132L1155.08 369.903ZM1162.68 375.738C1163.66 377.012 1164.47 378.416 1165.1 379.919L1167.87 378.77C1167.14 377.021 1166.19 375.389 1165.06 373.91L1162.68 375.738ZM1166.34 384.582C1166.45 385.373 1166.5 386.18 1166.5 387H1169.5C1169.5 386.05 1169.44 385.113 1169.32 384.194L1166.34 384.582ZM1166.5 387V389.5H1169.5V387H1166.5ZM1166.5 394.5V399.5H1169.5V394.5H1166.5ZM1166.5 404.5V409.5H1169.5V404.5H1166.5ZM1166.5 414.5V417H1169.5V414.5H1166.5Z" fill="black"/>
<path d="M1166.94 418.061C1167.53 418.646 1168.47 418.646 1169.06 418.061L1178.61 408.515C1179.19 407.929 1179.19 406.979 1178.61 406.393C1178.02 405.808 1177.07 405.808 1176.49 406.393L1168 414.879L1159.51 406.393C1158.93 405.808 1157.98 405.808 1157.39 406.393C1156.81 406.979 1156.81 407.929 1157.39 408.515L1166.94 418.061ZM1169.5 417V414.167H1166.5V417H1169.5ZM1169.5 408.5V402.833H1166.5V408.5H1169.5ZM1169.5 397.167V391.5H1166.5V397.167H1169.5ZM1169.5 385.833V383H1166.5V385.833H1169.5ZM1169.5 383C1169.5 382.18 1169.55 381.373 1169.66 380.582L1166.68 380.194C1166.56 381.113 1166.5 382.05 1166.5 383H1169.5ZM1170.9 375.919C1171.53 374.416 1172.34 373.012 1173.32 371.738L1170.94 369.91C1169.81 371.389 1168.86 373.021 1168.13 374.77L1170.9 375.919ZM1176.74 368.321C1178.01 367.343 1179.42 366.527 1180.92 365.903L1179.77 363.132C1178.02 363.857 1176.39 364.806 1174.91 365.943L1176.74 368.321ZM1185.58 364.656C1186.37 364.553 1187.18 364.5 1188 364.5V361.5C1187.05 361.5 1186.11 361.562 1185.19 361.682L1185.58 364.656ZM1188 364.5H1190.98V361.5H1188V364.5ZM1196.94 364.5H1202.91V361.5H1196.94V364.5ZM1208.87 364.5H1214.83V361.5H1208.87V364.5ZM1220.8 364.5H1226.76V361.5H1220.8V364.5ZM1232.72 364.5H1238.69V361.5H1232.72V364.5ZM1244.65 364.5H1250.61V361.5H1244.65V364.5ZM1256.57 364.5H1262.54V361.5H1256.57V364.5ZM1268.5 364.5H1274.46V361.5H1268.5V364.5ZM1280.43 364.5H1286.39V361.5H1280.43V364.5ZM1292.35 364.5H1298.31V361.5H1292.35V364.5ZM1304.28 364.5H1310.24V361.5H1304.28V364.5ZM1316.2 364.5H1322.17V361.5H1316.2V364.5ZM1328.13 364.5H1334.09V361.5H1328.13V364.5ZM1340.06 364.5H1346.02V361.5H1340.06V364.5ZM1351.98 364.5H1357.94V361.5H1351.98V364.5ZM1363.91 364.5H1369.87V361.5H1363.91V364.5ZM1375.83 364.5H1381.8V361.5H1375.83V364.5ZM1387.76 364.5H1393.72V361.5H1387.76V364.5ZM1399.69 364.5H1405.65V361.5H1399.69V364.5ZM1411.61 364.5H1417.57V361.5H1411.61V364.5ZM1423.54 364.5H1429.5V361.5H1423.54V364.5ZM1435.46 364.5H1441.43V361.5H1435.46V364.5ZM1447.39 364.5H1453.35V361.5H1447.39V364.5ZM1459.31 364.5H1465.28V361.5H1459.31V364.5ZM1471.24 364.5H1477.2V361.5H1471.24V364.5ZM1483.17 364.5H1489.13V361.5H1483.17V364.5ZM1495.09 364.5H1501.06V361.5H1495.09V364.5ZM1507.02 364.5H1510V361.5H1507.02V364.5ZM1510 364.5C1510.95 364.5 1511.89 364.438 1512.81 364.318L1512.42 361.344C1511.63 361.447 1510.82 361.5 1510 361.5V364.5ZM1518.23 362.868C1519.98 362.143 1521.61 361.194 1523.09 360.057L1521.26 357.679C1519.99 358.657 1518.58 359.473 1517.08 360.097L1518.23 362.868ZM1527.06 356.09C1528.19 354.611 1529.14 352.979 1529.87 351.23L1527.1 350.081C1526.47 351.584 1525.66 352.988 1524.68 354.262L1527.06 356.09ZM1531.32 345.806C1531.44 344.887 1531.5 343.95 1531.5 343H1528.5C1528.5 343.82 1528.45 344.627 1528.34 345.418L1531.32 345.806ZM1531.5 343V340.167H1528.5V343H1531.5ZM1531.5 334.5V328.833H1528.5V334.5H1531.5ZM1531.5 323.167V317.5H1528.5V323.167H1531.5ZM1531.5 311.833V309H1528.5V311.833H1531.5Z" fill="black"/>
<path d="M1168 766C1166.33 766 1165 767.041 1165 768.343C1165 769.644 1166.33 770.686 1168 770.686C1169.67 770.686 1171 769.644 1171 768.343C1171 767.041 1169.67 766 1168 766Z" fill="black"/>
<path d="M1401.06 931.061C1401.65 930.475 1401.65 929.525 1401.06 928.939L1391.51 919.393C1390.93 918.808 1389.98 918.808 1389.39 919.393C1388.81 919.979 1388.81 920.929 1389.39 921.515L1397.88 930L1389.39 938.485C1388.81 939.071 1388.81 940.021 1389.39 940.607C1389.98 941.192 1390.93 941.192 1391.51 940.607L1401.06 931.061ZM1166.5 768.343C1166.5 768.239 1166.55 768.061 1166.8 767.866C1167.05 767.667 1167.47 767.5 1168 767.5V764.5C1165.87 764.5 1163.5 765.889 1163.5 768.343H1166.5ZM1168 767.5C1168.53 767.5 1168.95 767.667 1169.2 767.866C1169.45 768.061 1169.5 768.239 1169.5 768.343H1172.5C1172.5 765.889 1170.13 764.5 1168 764.5V767.5ZM1169.5 768.343C1169.5 768.447 1169.45 768.625 1169.2 768.82C1168.95 769.019 1168.53 769.186 1168 769.186V772.186C1170.13 772.186 1172.5 770.797 1172.5 768.343H1169.5ZM1168 769.186C1167.47 769.186 1167.05 769.019 1166.8 768.82C1166.55 768.625 1166.5 768.447 1166.5 768.343H1163.5C1163.5 770.797 1165.87 772.186 1168 772.186V769.186ZM1166.5 770.686V910H1169.5V770.686H1166.5ZM1188 931.5H1400V928.5H1188V931.5ZM1166.5 910C1166.5 921.874 1176.13 931.5 1188 931.5V928.5C1177.78 928.5 1169.5 920.217 1169.5 910H1166.5Z" fill="black"/>
<path d="M1168 766C1166.33 766 1165 766.963 1165 768.167C1165 769.372 1166.33 770.335 1168 770.335C1169.67 770.335 1171 769.372 1171 768.167C1171 766.963 1169.67 766 1168 766Z" fill="black"/>
<path d="M934.939 928.939C934.354 929.525 934.354 930.475 934.939 931.061L944.485 940.607C945.071 941.192 946.021 941.192 946.607 940.607C947.192 940.021 947.192 939.071 946.607 938.485L938.121 930L946.607 921.515C947.192 920.929 947.192 919.979 946.607 919.393C946.021 918.808 945.071 918.808 944.485 919.393L934.939 928.939ZM1166.5 768.167C1166.5 768.162 1166.5 768.033 1166.75 767.848C1167.01 767.663 1167.44 767.5 1168 767.5V764.5C1166.89 764.5 1165.82 764.819 1165 765.416C1164.17 766.014 1163.5 766.968 1163.5 768.167H1166.5ZM1168 767.5C1168.56 767.5 1168.99 767.663 1169.25 767.848C1169.5 768.033 1169.5 768.162 1169.5 768.167H1172.5C1172.5 766.968 1171.83 766.014 1171 765.416C1170.18 764.819 1169.11 764.5 1168 764.5V767.5ZM1169.5 768.167C1169.5 768.172 1169.5 768.302 1169.25 768.487C1168.99 768.672 1168.56 768.835 1168 768.835V771.835C1169.11 771.835 1170.18 771.516 1171 770.919C1171.83 770.32 1172.5 769.366 1172.5 768.167H1169.5ZM1168 768.835C1167.44 768.835 1167.01 768.672 1166.75 768.487C1166.5 768.302 1166.5 768.172 1166.5 768.167H1163.5C1163.5 769.366 1164.17 770.32 1165 770.919C1165.82 771.516 1166.89 771.835 1168 771.835V768.835ZM1166.5 770.335V910H1169.5V770.335H1166.5ZM1148 928.5H936V931.5H1148V928.5ZM1166.5 910C1166.5 920.217 1158.22 928.5 1148 928.5V931.5C1159.87 931.5 1169.5 921.874 1169.5 910H1166.5Z" fill="black"/>
<path d="M632 575C632 570.582 628.418 567 624 567C619.582 567 616 570.582 616 575C616 579.418 619.582 583 624 583C628.418 583 632 579.418 632 575ZM353.939 573.939C353.354 574.525 353.354 575.475 353.939 576.061L363.485 585.607C364.071 586.192 365.021 586.192 365.607 585.607C366.192 585.021 366.192 584.071 365.607 583.485L357.121 575L365.607 566.515C366.192 565.929 366.192 564.979 365.607 564.393C365.021 563.808 364.071 563.808 363.485 564.393L353.939 573.939ZM624 573.5L355 573.5L355 576.5L624 576.5L624 573.5Z" fill="black"/>
<path d="M934 969C934 973.418 937.582 977 942 977C946.418 977 950 973.418 950 969C950 964.582 946.418 961 942 961C937.582 961 934 964.582 934 969ZM1401.06 970.061C1401.65 969.475 1401.65 968.525 1401.06 967.939L1391.51 958.393C1390.93 957.808 1389.98 957.808 1389.39 958.393C1388.81 958.979 1388.81 959.929 1389.39 960.515L1397.88 969L1389.39 977.485C1388.81 978.071 1388.81 979.021 1389.39 979.607C1389.98 980.192 1390.93 980.192 1391.51 979.607L1401.06 970.061ZM942 970.5L1400 970.5V967.5L942 967.5V970.5Z" fill="black"/>
<path d="M625.061 614.061C625.646 613.475 625.646 612.525 625.061 611.939L615.515 602.393C614.929 601.808 613.979 601.808 613.393 602.393C612.808 602.979 612.808 603.929 613.393 604.515L621.879 613L613.393 621.485C612.808 622.071 612.808 623.021 613.393 623.607C613.979 624.192 614.929 624.192 615.515 623.607L625.061 614.061ZM355 614.5L358.057 614.5L358.057 611.5L355 611.5L355 614.5ZM364.17 614.5L370.284 614.5L370.284 611.5L364.17 611.5L364.17 614.5ZM376.398 614.5L382.511 614.5L382.511 611.5L376.398 611.5L376.398 614.5ZM388.625 614.5L394.739 614.5L394.739 611.5L388.625 611.5L388.625 614.5ZM400.852 614.5L406.966 614.5L406.966 611.5L400.852 611.5L400.852 614.5ZM413.08 614.5L419.193 614.5L419.193 611.5L413.08 611.5L413.08 614.5ZM425.307 614.5L431.42 614.5L431.42 611.5L425.307 611.5L425.307 614.5ZM437.534 614.5L443.648 614.5L443.648 611.5L437.534 611.5L437.534 614.5ZM449.761 614.5L455.875 614.5L455.875 611.5L449.761 611.5L449.761 614.5ZM461.989 614.5L468.102 614.5L468.102 611.5L461.989 611.5L461.989 614.5ZM474.216 614.5L480.33 614.5L480.33 611.5L474.216 611.5L474.216 614.5ZM486.443 614.5L492.557 614.5L492.557 611.5L486.443 611.5L486.443 614.5ZM498.67 614.5L504.784 614.5L504.784 611.5L498.67 611.5L498.67 614.5ZM510.898 614.5L517.011 614.5L517.011 611.5L510.898 611.5L510.898 614.5ZM523.125 614.5L529.239 614.5L529.239 611.5L523.125 611.5L523.125 614.5ZM535.352 614.5L541.466 614.5L541.466 611.5L535.352 611.5L535.352 614.5ZM547.58 614.5L553.693 614.5L553.693 611.5L547.58 611.5L547.58 614.5ZM559.807 614.5L565.92 614.5L565.92 611.5L559.807 611.5L559.807 614.5ZM572.034 614.5L578.148 614.5L578.148 611.5L572.034 611.5L572.034 614.5ZM584.261 614.5L590.375 614.5L590.375 611.5L584.261 611.5L584.261 614.5ZM596.489 614.5L602.602 614.5L602.602 611.5L596.489 611.5L596.489 614.5ZM608.716 614.5L614.83 614.5L614.83 611.5L608.716 611.5L608.716 614.5ZM620.943 614.5L624 614.5L624 611.5L620.943 611.5L620.943 614.5Z" fill="black"/>
<path d="M235 706C230.582 706 227 709.582 227 714C227 718.418 230.582 722 235 722C239.418 722 243 718.418 243 714C243 709.582 239.418 706 235 706ZM233.939 871.061C234.525 871.646 235.475 871.646 236.061 871.061L245.607 861.515C246.192 860.929 246.192 859.979 245.607 859.393C245.021 858.808 244.071 858.808 243.485 859.393L235 867.879L226.515 859.393C225.929 858.808 224.979 858.808 224.393 859.393C223.808 859.979 223.808 860.929 224.393 861.515L233.939 871.061ZM233.5 714L233.5 870L236.5 870L236.5 714L233.5 714Z" fill="black"/>
</svg>
